<svg xmlns="http://www.w3.org/2000/svg" xmlns:xlink="http://www.w3.org/1999/xlink" width="600" height="400" viewBox="0 0 2400 1600">
<defs>
  <clipPath id="clip760">
    <rect x="0" y="0" width="2400" height="1600"></rect>
  </clipPath>
</defs>
<path clip-path="url(#clip760)" d="
M0 1600 L2400 1600 L2400 0 L0 0  Z
  " fill="#ffffff" fill-rule="evenodd" fill-opacity="1"></path>
<defs>
  <clipPath id="clip761">
    <rect x="480" y="0" width="1681" height="1600"></rect>
  </clipPath>
</defs>
<path clip-path="url(#clip760)" d="
M698.163 1552.76 L1701.84 1552.76 L1701.84 47.2441 L698.163 47.2441  Z
  " fill="#ffffff" fill-rule="evenodd" fill-opacity="1"></path>
<defs>
  <clipPath id="clip762">
    <rect x="698" y="47" width="1005" height="1507"></rect>
  </clipPath>
</defs>
<polyline clip-path="url(#clip762)" style="stroke:#000000; stroke-linecap:round; stroke-linejoin:round; stroke-width:4; stroke-opacity:1; fill:none" points="
  841.545,1337.68 841.971,1162.72 
  "></polyline>
<polyline clip-path="url(#clip762)" style="stroke:#000000; stroke-linecap:round; stroke-linejoin:round; stroke-width:4; stroke-opacity:1; fill:none" points="
  823.883,1198.67 841.971,1162.72 859.883,1198.76 
  "></polyline>
<polyline clip-path="url(#clip762)" style="stroke:#000000; stroke-linecap:round; stroke-linejoin:round; stroke-width:4; stroke-opacity:1; fill:none" points="
  841.971,1162.72 841.545,1337.68 
  "></polyline>
<polyline clip-path="url(#clip762)" style="stroke:#000000; stroke-linecap:round; stroke-linejoin:round; stroke-width:4; stroke-opacity:1; fill:none" points="
  841.545,1337.68 1192.35,1162.72 
  "></polyline>
<polyline clip-path="url(#clip762)" style="stroke:#000000; stroke-linecap:round; stroke-linejoin:round; stroke-width:4; stroke-opacity:1; fill:none" points="
  1152.1,1162.68 1192.35,1162.72 1168.17,1194.89 
  "></polyline>
<polyline clip-path="url(#clip762)" style="stroke:#000000; stroke-linecap:round; stroke-linejoin:round; stroke-width:4; stroke-opacity:1; fill:none" points="
  1192.35,1162.72 841.545,1337.68 
  "></polyline>
<polyline clip-path="url(#clip762)" style="stroke:#000000; stroke-linecap:round; stroke-linejoin:round; stroke-width:4; stroke-opacity:1; fill:none" points="
  841.545,1158.46 841.971,983.489 
  "></polyline>
<polyline clip-path="url(#clip762)" style="stroke:#000000; stroke-linecap:round; stroke-linejoin:round; stroke-width:4; stroke-opacity:1; fill:none" points="
  823.883,1019.45 841.971,983.489 859.883,1019.53 
  "></polyline>
<polyline clip-path="url(#clip762)" style="stroke:#000000; stroke-linecap:round; stroke-linejoin:round; stroke-width:4; stroke-opacity:1; fill:none" points="
  841.971,983.489 841.545,1158.46 
  "></polyline>
<polyline clip-path="url(#clip762)" style="stroke:#000000; stroke-linecap:round; stroke-linejoin:round; stroke-width:4; stroke-opacity:1; fill:none" points="
  841.545,979.228 841.971,804.262 
  "></polyline>
<polyline clip-path="url(#clip762)" style="stroke:#000000; stroke-linecap:round; stroke-linejoin:round; stroke-width:4; stroke-opacity:1; fill:none" points="
  823.883,840.218 841.971,804.262 859.883,840.305 
  "></polyline>
<polyline clip-path="url(#clip762)" style="stroke:#000000; stroke-linecap:round; stroke-linejoin:round; stroke-width:4; stroke-opacity:1; fill:none" points="
  841.971,804.262 841.545,979.228 
  "></polyline>
<polyline clip-path="url(#clip762)" style="stroke:#000000; stroke-linecap:round; stroke-linejoin:round; stroke-width:4; stroke-opacity:1; fill:none" points="
  841.545,800 841.971,625.034 
  "></polyline>
<polyline clip-path="url(#clip762)" style="stroke:#000000; stroke-linecap:round; stroke-linejoin:round; stroke-width:4; stroke-opacity:1; fill:none" points="
  823.883,660.99 841.971,625.034 859.883,661.078 
  "></polyline>
<polyline clip-path="url(#clip762)" style="stroke:#000000; stroke-linecap:round; stroke-linejoin:round; stroke-width:4; stroke-opacity:1; fill:none" points="
  841.971,625.034 841.545,800 
  "></polyline>
<polyline clip-path="url(#clip762)" style="stroke:#000000; stroke-linecap:round; stroke-linejoin:round; stroke-width:4; stroke-opacity:1; fill:none" points="
  841.545,620.772 841.971,445.807 
  "></polyline>
<polyline clip-path="url(#clip762)" style="stroke:#000000; stroke-linecap:round; stroke-linejoin:round; stroke-width:4; stroke-opacity:1; fill:none" points="
  823.883,481.763 841.971,445.807 859.883,481.85 
  "></polyline>
<polyline clip-path="url(#clip762)" style="stroke:#000000; stroke-linecap:round; stroke-linejoin:round; stroke-width:4; stroke-opacity:1; fill:none" points="
  841.971,445.807 841.545,620.772 
  "></polyline>
<polyline clip-path="url(#clip762)" style="stroke:#000000; stroke-linecap:round; stroke-linejoin:round; stroke-width:4; stroke-opacity:1; fill:none" points="
  841.545,441.545 841.971,266.579 
  "></polyline>
<polyline clip-path="url(#clip762)" style="stroke:#000000; stroke-linecap:round; stroke-linejoin:round; stroke-width:4; stroke-opacity:1; fill:none" points="
  823.883,302.535 841.971,266.579 859.883,302.623 
  "></polyline>
<polyline clip-path="url(#clip762)" style="stroke:#000000; stroke-linecap:round; stroke-linejoin:round; stroke-width:4; stroke-opacity:1; fill:none" points="
  841.971,266.579 841.545,441.545 
  "></polyline>
<polyline clip-path="url(#clip762)" style="stroke:#000000; stroke-linecap:round; stroke-linejoin:round; stroke-width:4; stroke-opacity:1; fill:none" points="
  1200,1158.46 1200.43,983.489 
  "></polyline>
<polyline clip-path="url(#clip762)" style="stroke:#000000; stroke-linecap:round; stroke-linejoin:round; stroke-width:4; stroke-opacity:1; fill:none" points="
  1182.34,1019.45 1200.43,983.489 1218.34,1019.53 
  "></polyline>
<polyline clip-path="url(#clip762)" style="stroke:#000000; stroke-linecap:round; stroke-linejoin:round; stroke-width:4; stroke-opacity:1; fill:none" points="
  1200.43,983.489 1200,1158.46 
  "></polyline>
<polyline clip-path="url(#clip762)" style="stroke:#000000; stroke-linecap:round; stroke-linejoin:round; stroke-width:4; stroke-opacity:1; fill:none" points="
  1200,979.228 1200.43,804.262 
  "></polyline>
<polyline clip-path="url(#clip762)" style="stroke:#000000; stroke-linecap:round; stroke-linejoin:round; stroke-width:4; stroke-opacity:1; fill:none" points="
  1182.34,840.218 1200.43,804.262 1218.34,840.305 
  "></polyline>
<polyline clip-path="url(#clip762)" style="stroke:#000000; stroke-linecap:round; stroke-linejoin:round; stroke-width:4; stroke-opacity:1; fill:none" points="
  1200.43,804.262 1200,979.228 
  "></polyline>
<polyline clip-path="url(#clip762)" style="stroke:#000000; stroke-linecap:round; stroke-linejoin:round; stroke-width:4; stroke-opacity:1; fill:none" points="
  1200,979.228 1550.81,804.262 
  "></polyline>
<polyline clip-path="url(#clip762)" style="stroke:#000000; stroke-linecap:round; stroke-linejoin:round; stroke-width:4; stroke-opacity:1; fill:none" points="
  1510.56,804.222 1550.81,804.262 1526.62,836.437 
  "></polyline>
<polyline clip-path="url(#clip762)" style="stroke:#000000; stroke-linecap:round; stroke-linejoin:round; stroke-width:4; stroke-opacity:1; fill:none" points="
  1550.81,804.262 1200,979.228 
  "></polyline>
<polyline clip-path="url(#clip762)" style="stroke:#000000; stroke-linecap:round; stroke-linejoin:round; stroke-width:4; stroke-opacity:1; fill:none" points="
  1200,800 1200.43,625.034 
  "></polyline>
<polyline clip-path="url(#clip762)" style="stroke:#000000; stroke-linecap:round; stroke-linejoin:round; stroke-width:4; stroke-opacity:1; fill:none" points="
  1182.34,660.99 1200.43,625.034 1218.34,661.078 
  "></polyline>
<polyline clip-path="url(#clip762)" style="stroke:#000000; stroke-linecap:round; stroke-linejoin:round; stroke-width:4; stroke-opacity:1; fill:none" points="
  1200.43,625.034 1200,800 
  "></polyline>
<polyline clip-path="url(#clip762)" style="stroke:#000000; stroke-linecap:round; stroke-linejoin:round; stroke-width:4; stroke-opacity:1; fill:none" points="
  1558.46,800 1558.88,625.034 
  "></polyline>
<polyline clip-path="url(#clip762)" style="stroke:#000000; stroke-linecap:round; stroke-linejoin:round; stroke-width:4; stroke-opacity:1; fill:none" points="
  1540.79,660.99 1558.88,625.034 1576.79,661.078 
  "></polyline>
<polyline clip-path="url(#clip762)" style="stroke:#000000; stroke-linecap:round; stroke-linejoin:round; stroke-width:4; stroke-opacity:1; fill:none" points="
  1558.88,625.034 1558.46,800 
  "></polyline>
<path clip-path="url(#clip762)" d="
M825.977 1256.22 L857.539 1256.22 L857.539 1244.18 L825.977 1244.18 L825.977 1256.22 L825.977 1256.22  Z
  " fill="#ffffff" fill-rule="evenodd" fill-opacity="1"></path>
<polyline clip-path="url(#clip762)" style="stroke:#000000; stroke-linecap:round; stroke-linejoin:round; stroke-width:0; stroke-opacity:0; fill:none" points="
  825.977,1256.22 857.539,1256.22 857.539,1244.18 825.977,1244.18 825.977,1256.22 
  "></polyline>
<path clip-path="url(#clip762)" d="
M999.095 1256.22 L1034.8 1256.22 L1034.8 1244.18 L999.095 1244.18 L999.095 1256.22 L999.095 1256.22  Z
  " fill="#ffffff" fill-rule="evenodd" fill-opacity="1"></path>
<polyline clip-path="url(#clip762)" style="stroke:#000000; stroke-linecap:round; stroke-linejoin:round; stroke-width:0; stroke-opacity:0; fill:none" points="
  999.095,1256.22 1034.8,1256.22 1034.8,1244.18 999.095,1244.18 999.095,1256.22 
  "></polyline>
<path clip-path="url(#clip762)" d="
M825.977 1076.99 L857.539 1076.99 L857.539 1064.95 L825.977 1064.95 L825.977 1076.99 L825.977 1076.99  Z
  " fill="#ffffff" fill-rule="evenodd" fill-opacity="1"></path>
<polyline clip-path="url(#clip762)" style="stroke:#000000; stroke-linecap:round; stroke-linejoin:round; stroke-width:0; stroke-opacity:0; fill:none" points="
  825.977,1076.99 857.539,1076.99 857.539,1064.95 825.977,1064.95 825.977,1076.99 
  "></polyline>
<path clip-path="url(#clip762)" d="
M825.977 897.767 L857.539 897.767 L857.539 885.723 L825.977 885.723 L825.977 897.767 L825.977 897.767  Z
  " fill="#ffffff" fill-rule="evenodd" fill-opacity="1"></path>
<polyline clip-path="url(#clip762)" style="stroke:#000000; stroke-linecap:round; stroke-linejoin:round; stroke-width:0; stroke-opacity:0; fill:none" points="
  825.977,897.767 857.539,897.767 857.539,885.723 825.977,885.723 825.977,897.767 
  "></polyline>
<path clip-path="url(#clip762)" d="
M825.977 718.539 L857.539 718.539 L857.539 706.495 L825.977 706.495 L825.977 718.539 L825.977 718.539  Z
  " fill="#ffffff" fill-rule="evenodd" fill-opacity="1"></path>
<polyline clip-path="url(#clip762)" style="stroke:#000000; stroke-linecap:round; stroke-linejoin:round; stroke-width:0; stroke-opacity:0; fill:none" points="
  825.977,718.539 857.539,718.539 857.539,706.495 825.977,706.495 825.977,718.539 
  "></polyline>
<path clip-path="url(#clip762)" d="
M828.118 539.312 L855.397 539.312 L855.397 527.267 L828.118 527.267 L828.118 539.312 L828.118 539.312  Z
  " fill="#ffffff" fill-rule="evenodd" fill-opacity="1"></path>
<polyline clip-path="url(#clip762)" style="stroke:#000000; stroke-linecap:round; stroke-linejoin:round; stroke-width:0; stroke-opacity:0; fill:none" points="
  828.118,539.312 855.397,539.312 855.397,527.267 828.118,527.267 828.118,539.312 
  "></polyline>
<path clip-path="url(#clip762)" d="
M828.118 360.084 L855.397 360.084 L855.397 348.04 L828.118 348.04 L828.118 360.084 L828.118 360.084  Z
  " fill="#ffffff" fill-rule="evenodd" fill-opacity="1"></path>
<polyline clip-path="url(#clip762)" style="stroke:#000000; stroke-linecap:round; stroke-linejoin:round; stroke-width:0; stroke-opacity:0; fill:none" points="
  828.118,360.084 855.397,360.084 855.397,348.04 828.118,348.04 828.118,360.084 
  "></polyline>
<path clip-path="url(#clip762)" d="
M1182.36 1076.99 L1218.07 1076.99 L1218.07 1064.95 L1182.36 1064.95 L1182.36 1076.99 L1182.36 1076.99  Z
  " fill="#ffffff" fill-rule="evenodd" fill-opacity="1"></path>
<polyline clip-path="url(#clip762)" style="stroke:#000000; stroke-linecap:round; stroke-linejoin:round; stroke-width:0; stroke-opacity:0; fill:none" points="
  1182.36,1076.99 1218.07,1076.99 1218.07,1064.95 1182.36,1064.95 1182.36,1076.99 
  "></polyline>
<path clip-path="url(#clip762)" d="
M1182.36 897.767 L1218.07 897.767 L1218.07 885.723 L1182.36 885.723 L1182.36 897.767 L1182.36 897.767  Z
  " fill="#ffffff" fill-rule="evenodd" fill-opacity="1"></path>
<polyline clip-path="url(#clip762)" style="stroke:#000000; stroke-linecap:round; stroke-linejoin:round; stroke-width:0; stroke-opacity:0; fill:none" points="
  1182.36,897.767 1218.07,897.767 1218.07,885.723 1182.36,885.723 1182.36,897.767 
  "></polyline>
<path clip-path="url(#clip762)" d="
M1361.76 897.767 L1389.04 897.767 L1389.04 885.723 L1361.76 885.723 L1361.76 897.767 L1361.76 897.767  Z
  " fill="#ffffff" fill-rule="evenodd" fill-opacity="1"></path>
<polyline clip-path="url(#clip762)" style="stroke:#000000; stroke-linecap:round; stroke-linejoin:round; stroke-width:0; stroke-opacity:0; fill:none" points="
  1361.76,897.767 1389.04,897.767 1389.04,885.723 1361.76,885.723 1361.76,897.767 
  "></polyline>
<path clip-path="url(#clip762)" d="
M1184.43 718.539 L1215.99 718.539 L1215.99 706.495 L1184.43 706.495 L1184.43 718.539 L1184.43 718.539  Z
  " fill="#ffffff" fill-rule="evenodd" fill-opacity="1"></path>
<polyline clip-path="url(#clip762)" style="stroke:#000000; stroke-linecap:round; stroke-linejoin:round; stroke-width:0; stroke-opacity:0; fill:none" points="
  1184.43,718.539 1215.99,718.539 1215.99,706.495 1184.43,706.495 1184.43,718.539 
  "></polyline>
<path clip-path="url(#clip762)" d="
M1542.89 718.539 L1574.45 718.539 L1574.45 706.495 L1542.89 706.495 L1542.89 718.539 L1542.89 718.539  Z
  " fill="#ffffff" fill-rule="evenodd" fill-opacity="1"></path>
<polyline clip-path="url(#clip762)" style="stroke:#000000; stroke-linecap:round; stroke-linejoin:round; stroke-width:0; stroke-opacity:0; fill:none" points="
  1542.89,718.539 1574.45,718.539 1574.45,706.495 1542.89,706.495 1542.89,718.539 
  "></polyline>
<path clip-path="url(#clip762)" d="
M833.47 1341.94 L849.619 1341.94 L849.619 1333.42 L833.47 1333.42 L833.47 1341.94 L833.47 1341.94  Z
  " fill="#ff0000" fill-rule="evenodd" fill-opacity="1"></path>
<polyline clip-path="url(#clip762)" style="stroke:#000000; stroke-linecap:round; stroke-linejoin:round; stroke-width:4; stroke-opacity:1; fill:none" points="
  833.47,1341.94 849.619,1341.94 849.619,1333.42 833.47,1333.42 833.47,1341.94 
  "></polyline>
<path clip-path="url(#clip762)" d="
M830.376 1162.72 L852.713 1162.72 L852.713 1154.19 L830.376 1154.19 L830.376 1162.72 L830.376 1162.72  Z
  " fill="#ff0000" fill-rule="evenodd" fill-opacity="1"></path>
<polyline clip-path="url(#clip762)" style="stroke:#000000; stroke-linecap:round; stroke-linejoin:round; stroke-width:4; stroke-opacity:1; fill:none" points="
  830.376,1162.72 852.713,1162.72 852.713,1154.19 830.376,1154.19 830.376,1162.72 
  "></polyline>
<path clip-path="url(#clip762)" d="
M830.376 983.489 L852.713 983.489 L852.713 974.966 L830.376 974.966 L830.376 983.489 L830.376 983.489  Z
  " fill="#ff0000" fill-rule="evenodd" fill-opacity="1"></path>
<polyline clip-path="url(#clip762)" style="stroke:#000000; stroke-linecap:round; stroke-linejoin:round; stroke-width:4; stroke-opacity:1; fill:none" points="
  830.376,983.489 852.713,983.489 852.713,974.966 830.376,974.966 830.376,983.489 
  "></polyline>
<path clip-path="url(#clip762)" d="
M830.376 804.262 L852.713 804.262 L852.713 795.738 L830.376 795.738 L830.376 804.262 L830.376 804.262  Z
  " fill="#ff0000" fill-rule="evenodd" fill-opacity="1"></path>
<polyline clip-path="url(#clip762)" style="stroke:#000000; stroke-linecap:round; stroke-linejoin:round; stroke-width:4; stroke-opacity:1; fill:none" points="
  830.376,804.262 852.713,804.262 852.713,795.738 830.376,795.738 830.376,804.262 
  "></polyline>
<path clip-path="url(#clip762)" d="
M830.376 625.034 L852.713 625.034 L852.713 616.511 L830.376 616.511 L830.376 625.034 L830.376 625.034  Z
  " fill="#ff0000" fill-rule="evenodd" fill-opacity="1"></path>
<polyline clip-path="url(#clip762)" style="stroke:#000000; stroke-linecap:round; stroke-linejoin:round; stroke-width:4; stroke-opacity:1; fill:none" points="
  830.376,625.034 852.713,625.034 852.713,616.511 830.376,616.511 830.376,625.034 
  "></polyline>
<path clip-path="url(#clip762)" d="
M830.376 445.807 L852.713 445.807 L852.713 437.283 L830.376 437.283 L830.376 445.807 L830.376 445.807  Z
  " fill="#ff0000" fill-rule="evenodd" fill-opacity="1"></path>
<polyline clip-path="url(#clip762)" style="stroke:#000000; stroke-linecap:round; stroke-linejoin:round; stroke-width:4; stroke-opacity:1; fill:none" points="
  830.376,445.807 852.713,445.807 852.713,437.283 830.376,437.283 830.376,445.807 
  "></polyline>
<path clip-path="url(#clip762)" d="
M830.376 266.579 L852.713 266.579 L852.713 258.055 L830.376 258.055 L830.376 266.579 L830.376 266.579  Z
  " fill="#ff0000" fill-rule="evenodd" fill-opacity="1"></path>
<polyline clip-path="url(#clip762)" style="stroke:#000000; stroke-linecap:round; stroke-linejoin:round; stroke-width:4; stroke-opacity:1; fill:none" points="
  830.376,266.579 852.713,266.579 852.713,258.055 830.376,258.055 830.376,266.579 
  "></polyline>
<path clip-path="url(#clip762)" d="
M1188.83 1162.72 L1211.17 1162.72 L1211.17 1154.19 L1188.83 1154.19 L1188.83 1162.72 L1188.83 1162.72  Z
  " fill="#ff0000" fill-rule="evenodd" fill-opacity="1"></path>
<polyline clip-path="url(#clip762)" style="stroke:#000000; stroke-linecap:round; stroke-linejoin:round; stroke-width:4; stroke-opacity:1; fill:none" points="
  1188.83,1162.72 1211.17,1162.72 1211.17,1154.19 1188.83,1154.19 1188.83,1162.72 
  "></polyline>
<path clip-path="url(#clip762)" d="
M1188.83 983.489 L1211.17 983.489 L1211.17 974.966 L1188.83 974.966 L1188.83 983.489 L1188.83 983.489  Z
  " fill="#ff0000" fill-rule="evenodd" fill-opacity="1"></path>
<polyline clip-path="url(#clip762)" style="stroke:#000000; stroke-linecap:round; stroke-linejoin:round; stroke-width:4; stroke-opacity:1; fill:none" points="
  1188.83,983.489 1211.17,983.489 1211.17,974.966 1188.83,974.966 1188.83,983.489 
  "></polyline>
<path clip-path="url(#clip762)" d="
M1188.83 804.262 L1211.17 804.262 L1211.17 795.738 L1188.83 795.738 L1188.83 804.262 L1188.83 804.262  Z
  " fill="#ff0000" fill-rule="evenodd" fill-opacity="1"></path>
<polyline clip-path="url(#clip762)" style="stroke:#000000; stroke-linecap:round; stroke-linejoin:round; stroke-width:4; stroke-opacity:1; fill:none" points="
  1188.83,804.262 1211.17,804.262 1211.17,795.738 1188.83,795.738 1188.83,804.262 
  "></polyline>
<path clip-path="url(#clip762)" d="
M1188.83 625.034 L1211.17 625.034 L1211.17 616.511 L1188.83 616.511 L1188.83 625.034 L1188.83 625.034  Z
  " fill="#ff0000" fill-rule="evenodd" fill-opacity="1"></path>
<polyline clip-path="url(#clip762)" style="stroke:#000000; stroke-linecap:round; stroke-linejoin:round; stroke-width:4; stroke-opacity:1; fill:none" points="
  1188.83,625.034 1211.17,625.034 1211.17,616.511 1188.83,616.511 1188.83,625.034 
  "></polyline>
<path clip-path="url(#clip762)" d="
M1547.29 804.262 L1569.62 804.262 L1569.62 795.738 L1547.29 795.738 L1547.29 804.262 L1547.29 804.262  Z
  " fill="#ff0000" fill-rule="evenodd" fill-opacity="1"></path>
<polyline clip-path="url(#clip762)" style="stroke:#000000; stroke-linecap:round; stroke-linejoin:round; stroke-width:4; stroke-opacity:1; fill:none" points="
  1547.29,804.262 1569.62,804.262 1569.62,795.738 1547.29,795.738 1547.29,804.262 
  "></polyline>
<path clip-path="url(#clip762)" d="
M1547.29 625.034 L1569.62 625.034 L1569.62 616.511 L1547.29 616.511 L1547.29 625.034 L1547.29 625.034  Z
  " fill="#ff0000" fill-rule="evenodd" fill-opacity="1"></path>
<polyline clip-path="url(#clip762)" style="stroke:#000000; stroke-linecap:round; stroke-linejoin:round; stroke-width:4; stroke-opacity:1; fill:none" points="
  1547.29,625.034 1569.62,625.034 1569.62,616.511 1547.29,616.511 1547.29,625.034 
  "></polyline>
<path clip-path="url(#clip762)" d="M841.145 1337.28 L841.145 1338.08 L841.945 1338.08 L841.945 1337.28 L841.145 1337.28 Z" fill="#ff0000" fill-rule="evenodd" fill-opacity="1" stroke="#000000" stroke-opacity="1" stroke-width="3.2"></path>
<path clip-path="url(#clip762)" d="M841.145 1158.06 L841.145 1158.86 L841.945 1158.86 L841.945 1158.06 L841.145 1158.06 Z" fill="#ff0000" fill-rule="evenodd" fill-opacity="1" stroke="#000000" stroke-opacity="1" stroke-width="3.2"></path>
<path clip-path="url(#clip762)" d="M841.145 978.828 L841.145 979.628 L841.945 979.628 L841.945 978.828 L841.145 978.828 Z" fill="#ff0000" fill-rule="evenodd" fill-opacity="1" stroke="#000000" stroke-opacity="1" stroke-width="3.2"></path>
<path clip-path="url(#clip762)" d="M841.145 799.6 L841.145 800.4 L841.945 800.4 L841.945 799.6 L841.145 799.6 Z" fill="#ff0000" fill-rule="evenodd" fill-opacity="1" stroke="#000000" stroke-opacity="1" stroke-width="3.2"></path>
<path clip-path="url(#clip762)" d="M841.145 620.372 L841.145 621.172 L841.945 621.172 L841.945 620.372 L841.145 620.372 Z" fill="#ff0000" fill-rule="evenodd" fill-opacity="1" stroke="#000000" stroke-opacity="1" stroke-width="3.2"></path>
<path clip-path="url(#clip762)" d="M841.145 441.145 L841.145 441.945 L841.945 441.945 L841.945 441.145 L841.145 441.145 Z" fill="#ff0000" fill-rule="evenodd" fill-opacity="1" stroke="#000000" stroke-opacity="1" stroke-width="3.2"></path>
<path clip-path="url(#clip762)" d="M841.145 261.917 L841.145 262.717 L841.945 262.717 L841.945 261.917 L841.145 261.917 Z" fill="#ff0000" fill-rule="evenodd" fill-opacity="1" stroke="#000000" stroke-opacity="1" stroke-width="3.2"></path>
<path clip-path="url(#clip762)" d="M1199.6 1158.06 L1199.6 1158.86 L1200.4 1158.86 L1200.4 1158.06 L1199.6 1158.06 Z" fill="#ff0000" fill-rule="evenodd" fill-opacity="1" stroke="#000000" stroke-opacity="1" stroke-width="3.2"></path>
<path clip-path="url(#clip762)" d="M1199.6 978.828 L1199.6 979.628 L1200.4 979.628 L1200.4 978.828 L1199.6 978.828 Z" fill="#ff0000" fill-rule="evenodd" fill-opacity="1" stroke="#000000" stroke-opacity="1" stroke-width="3.2"></path>
<path clip-path="url(#clip762)" d="M1199.6 799.6 L1199.6 800.4 L1200.4 800.4 L1200.4 799.6 L1199.6 799.6 Z" fill="#ff0000" fill-rule="evenodd" fill-opacity="1" stroke="#000000" stroke-opacity="1" stroke-width="3.2"></path>
<path clip-path="url(#clip762)" d="M1199.6 620.372 L1199.6 621.172 L1200.4 621.172 L1200.4 620.372 L1199.6 620.372 Z" fill="#ff0000" fill-rule="evenodd" fill-opacity="1" stroke="#000000" stroke-opacity="1" stroke-width="3.2"></path>
<path clip-path="url(#clip762)" d="M1558.06 799.6 L1558.06 800.4 L1558.86 800.4 L1558.86 799.6 L1558.06 799.6 Z" fill="#ff0000" fill-rule="evenodd" fill-opacity="1" stroke="#000000" stroke-opacity="1" stroke-width="3.2"></path>
<path clip-path="url(#clip762)" d="M1558.06 620.372 L1558.06 621.172 L1558.86 621.172 L1558.86 620.372 L1558.06 620.372 Z" fill="#ff0000" fill-rule="evenodd" fill-opacity="1" stroke="#000000" stroke-opacity="1" stroke-width="3.2"></path>
<path clip-path="url(#clip760)" d="M777.288 1261.88 L791.567 1261.88 L791.567 1265.32 L772.366 1265.32 L772.366 1261.88 Q774.695 1259.47 778.706 1255.42 Q782.736 1251.34 783.769 1250.17 Q785.734 1247.96 786.504 1246.44 Q787.293 1244.9 787.293 1243.42 Q787.293 1241.01 785.592 1239.5 Q783.911 1237.98 781.197 1237.98 Q779.273 1237.98 777.126 1238.64 Q774.999 1239.31 772.568 1240.67 L772.568 1236.54 Q775.04 1235.55 777.186 1235.04 Q779.333 1234.53 781.116 1234.53 Q785.815 1234.53 788.61 1236.88 Q791.405 1239.23 791.405 1243.16 Q791.405 1245.02 790.696 1246.71 Q790.008 1248.37 788.164 1250.64 Q787.658 1251.22 784.944 1254.04 Q782.23 1256.83 777.288 1261.88 Z" fill="#000000" fill-rule="evenodd" fill-opacity="1"></path><path clip-path="url(#clip760)" d="M809.411 1248.57 Q806.657 1248.57 805.036 1250.45 Q803.436 1252.34 803.436 1255.62 Q803.436 1258.88 805.036 1260.78 Q806.657 1262.67 809.411 1262.67 Q812.166 1262.67 813.766 1260.78 Q815.387 1258.88 815.387 1255.62 Q815.387 1252.34 813.766 1250.45 Q812.166 1248.57 809.411 1248.57 M817.533 1235.75 L817.533 1239.48 Q815.994 1238.75 814.414 1238.36 Q812.855 1237.98 811.315 1237.98 Q807.264 1237.98 805.117 1240.71 Q802.991 1243.44 802.687 1248.97 Q803.882 1247.21 805.685 1246.28 Q807.487 1245.33 809.654 1245.33 Q814.212 1245.33 816.845 1248.1 Q819.498 1250.86 819.498 1255.62 Q819.498 1260.28 816.744 1263.09 Q813.989 1265.91 809.411 1265.91 Q804.166 1265.91 801.391 1261.9 Q798.616 1257.87 798.616 1250.23 Q798.616 1243.06 802.019 1238.81 Q805.421 1234.53 811.153 1234.53 Q812.693 1234.53 814.252 1234.84 Q815.832 1235.14 817.533 1235.75 Z" fill="#000000" fill-rule="evenodd" fill-opacity="1"></path><path clip-path="url(#clip760)" d="M826.547 1260.18 L830.82 1260.18 L830.82 1265.32 L826.547 1265.32 L826.547 1260.18 Z" fill="#000000" fill-rule="evenodd" fill-opacity="1"></path><path clip-path="url(#clip760)" d="M848.989 1248.57 Q846.234 1248.57 844.614 1250.45 Q843.014 1252.34 843.014 1255.62 Q843.014 1258.88 844.614 1260.78 Q846.234 1262.67 848.989 1262.67 Q851.743 1262.67 853.343 1260.78 Q854.964 1258.88 854.964 1255.62 Q854.964 1252.34 853.343 1250.45 Q851.743 1248.57 848.989 1248.57 M857.111 1235.75 L857.111 1239.48 Q855.571 1238.75 853.992 1238.36 Q852.432 1237.98 850.893 1237.98 Q846.842 1237.98 844.695 1240.71 Q842.568 1243.44 842.264 1248.97 Q843.459 1247.21 845.262 1246.28 Q847.065 1245.33 849.232 1245.33 Q853.789 1245.33 856.422 1248.1 Q859.076 1250.86 859.076 1255.62 Q859.076 1260.28 856.321 1263.09 Q853.566 1265.91 848.989 1265.91 Q843.743 1265.91 840.968 1261.9 Q838.193 1257.87 838.193 1250.23 Q838.193 1243.06 841.596 1238.81 Q844.999 1234.53 850.731 1234.53 Q852.27 1234.53 853.83 1234.84 Q855.409 1235.14 857.111 1235.75 Z" fill="#000000" fill-rule="evenodd" fill-opacity="1"></path><path clip-path="url(#clip760)" d="M877.365 1238.64 L867.036 1254.79 L877.365 1254.79 L877.365 1238.64 M876.292 1235.08 L881.437 1235.08 L881.437 1254.79 L885.751 1254.79 L885.751 1258.19 L881.437 1258.19 L881.437 1265.32 L877.365 1265.32 L877.365 1258.19 L863.714 1258.19 L863.714 1254.24 L876.292 1235.08 Z" fill="#000000" fill-rule="evenodd" fill-opacity="1"></path><path clip-path="url(#clip760)" d="M904.911 1249.01 Q907.848 1249.64 909.489 1251.63 Q911.15 1253.61 911.15 1256.53 Q911.15 1261.01 908.071 1263.46 Q904.993 1265.91 899.321 1265.91 Q897.417 1265.91 895.392 1265.52 Q893.387 1265.16 891.24 1264.41 L891.24 1260.46 Q892.941 1261.45 894.967 1261.96 Q896.992 1262.46 899.2 1262.46 Q903.048 1262.46 905.053 1260.94 Q907.079 1259.43 907.079 1256.53 Q907.079 1253.86 905.195 1252.36 Q903.332 1250.84 899.99 1250.84 L896.465 1250.84 L896.465 1247.48 L900.152 1247.48 Q903.17 1247.48 904.77 1246.28 Q906.37 1245.07 906.37 1242.8 Q906.37 1240.47 904.709 1239.23 Q903.068 1237.98 899.99 1237.98 Q898.309 1237.98 896.384 1238.34 Q894.46 1238.71 892.151 1239.48 L892.151 1235.83 Q894.48 1235.18 896.506 1234.86 Q898.552 1234.53 900.354 1234.53 Q905.013 1234.53 907.727 1236.66 Q910.441 1238.77 910.441 1242.37 Q910.441 1244.88 909.003 1246.62 Q907.565 1248.35 904.911 1249.01 Z" fill="#000000" fill-rule="evenodd" fill-opacity="1"></path><path clip-path="url(#clip760)" d="M939.566 1252.3 L950.483 1252.3 L950.483 1255.62 L939.566 1255.62 L939.566 1252.3 Z" fill="#000000" fill-rule="evenodd" fill-opacity="1"></path><path clip-path="url(#clip760)" d="M960.468 1261.88 L974.748 1261.88 L974.748 1265.32 L955.546 1265.32 L955.546 1261.88 Q957.876 1259.47 961.886 1255.42 Q965.917 1251.34 966.95 1250.17 Q968.914 1247.96 969.684 1246.44 Q970.474 1244.9 970.474 1243.42 Q970.474 1241.01 968.773 1239.5 Q967.092 1237.98 964.377 1237.98 Q962.453 1237.98 960.306 1238.64 Q958.18 1239.31 955.749 1240.67 L955.749 1236.54 Q958.22 1235.55 960.367 1235.04 Q962.514 1234.53 964.296 1234.53 Q968.995 1234.53 971.791 1236.88 Q974.586 1239.23 974.586 1243.16 Q974.586 1245.02 973.877 1246.71 Q973.188 1248.37 971.345 1250.64 Q970.839 1251.22 968.124 1254.04 Q965.41 1256.83 960.468 1261.88 Z" fill="#000000" fill-rule="evenodd" fill-opacity="1"></path><path clip-path="url(#clip760)" d="M992.592 1248.57 Q989.837 1248.57 988.217 1250.45 Q986.617 1252.34 986.617 1255.62 Q986.617 1258.88 988.217 1260.78 Q989.837 1262.67 992.592 1262.67 Q995.347 1262.67 996.947 1260.78 Q998.567 1258.88 998.567 1255.62 Q998.567 1252.34 996.947 1250.45 Q995.347 1248.57 992.592 1248.57 M1000.71 1235.75 L1000.71 1239.48 Q999.175 1238.75 997.595 1238.36 Q996.035 1237.98 994.496 1237.98 Q990.445 1237.98 988.298 1240.71 Q986.171 1243.44 985.867 1248.97 Q987.062 1247.21 988.865 1246.28 Q990.668 1245.33 992.835 1245.33 Q997.392 1245.33 1000.03 1248.1 Q1002.68 1250.86 1002.68 1255.62 Q1002.68 1260.28 999.924 1263.09 Q997.169 1265.91 992.592 1265.91 Q987.346 1265.91 984.571 1261.9 Q981.796 1257.87 981.796 1250.23 Q981.796 1243.06 985.199 1238.81 Q988.602 1234.53 994.334 1234.53 Q995.873 1234.53 997.433 1234.84 Q999.013 1235.14 1000.71 1235.75 Z" fill="#000000" fill-rule="evenodd" fill-opacity="1"></path><path clip-path="url(#clip760)" d="M1009.73 1260.18 L1014 1260.18 L1014 1265.32 L1009.73 1265.32 L1009.73 1260.18 Z" fill="#000000" fill-rule="evenodd" fill-opacity="1"></path><path clip-path="url(#clip760)" d="M1032.17 1248.57 Q1029.41 1248.57 1027.79 1250.45 Q1026.19 1252.34 1026.19 1255.62 Q1026.19 1258.88 1027.79 1260.78 Q1029.41 1262.67 1032.17 1262.67 Q1034.92 1262.67 1036.52 1260.78 Q1038.14 1258.88 1038.14 1255.62 Q1038.14 1252.34 1036.52 1250.45 Q1034.92 1248.57 1032.17 1248.57 M1040.29 1235.75 L1040.29 1239.48 Q1038.75 1238.75 1037.17 1238.36 Q1035.61 1237.98 1034.07 1237.98 Q1030.02 1237.98 1027.88 1240.71 Q1025.75 1243.44 1025.44 1248.97 Q1026.64 1247.21 1028.44 1246.28 Q1030.25 1245.33 1032.41 1245.33 Q1036.97 1245.33 1039.6 1248.1 Q1042.26 1250.86 1042.26 1255.62 Q1042.26 1260.28 1039.5 1263.09 Q1036.75 1265.91 1032.17 1265.91 Q1026.92 1265.91 1024.15 1261.9 Q1021.37 1257.87 1021.37 1250.23 Q1021.37 1243.06 1024.78 1238.81 Q1028.18 1234.53 1033.91 1234.53 Q1035.45 1234.53 1037.01 1234.84 Q1038.59 1235.14 1040.29 1235.75 Z" fill="#000000" fill-rule="evenodd" fill-opacity="1"></path><path clip-path="url(#clip760)" d="M1060.55 1238.64 L1050.22 1254.79 L1060.55 1254.79 L1060.55 1238.64 M1059.47 1235.08 L1064.62 1235.08 L1064.62 1254.79 L1068.93 1254.79 L1068.93 1258.19 L1064.62 1258.19 L1064.62 1265.32 L1060.55 1265.32 L1060.55 1258.19 L1046.89 1258.19 L1046.89 1254.24 L1059.47 1235.08 Z" fill="#000000" fill-rule="evenodd" fill-opacity="1"></path><path clip-path="url(#clip760)" d="M1088.09 1249.01 Q1091.03 1249.64 1092.67 1251.63 Q1094.33 1253.61 1094.33 1256.53 Q1094.33 1261.01 1091.25 1263.46 Q1088.17 1265.91 1082.5 1265.91 Q1080.6 1265.91 1078.57 1265.52 Q1076.57 1265.16 1074.42 1264.41 L1074.42 1260.46 Q1076.12 1261.45 1078.15 1261.96 Q1080.17 1262.46 1082.38 1262.46 Q1086.23 1262.46 1088.23 1260.94 Q1090.26 1259.43 1090.26 1256.53 Q1090.26 1253.86 1088.38 1252.36 Q1086.51 1250.84 1083.17 1250.84 L1079.65 1250.84 L1079.65 1247.48 L1083.33 1247.48 Q1086.35 1247.48 1087.95 1246.28 Q1089.55 1245.07 1089.55 1242.8 Q1089.55 1240.47 1087.89 1239.23 Q1086.25 1237.98 1083.17 1237.98 Q1081.49 1237.98 1079.56 1238.34 Q1077.64 1238.71 1075.33 1239.48 L1075.33 1235.83 Q1077.66 1235.18 1079.69 1234.86 Q1081.73 1234.53 1083.53 1234.53 Q1088.19 1234.53 1090.91 1236.66 Q1093.62 1238.77 1093.62 1242.37 Q1093.62 1244.88 1092.18 1246.62 Q1090.75 1248.35 1088.09 1249.01 Z" fill="#000000" fill-rule="evenodd" fill-opacity="1"></path><path clip-path="url(#clip760)" d="M777.288 1082.65 L791.567 1082.65 L791.567 1086.09 L772.366 1086.09 L772.366 1082.65 Q774.695 1080.24 778.706 1076.19 Q782.736 1072.12 783.769 1070.94 Q785.734 1068.73 786.504 1067.22 Q787.293 1065.68 787.293 1064.2 Q787.293 1061.79 785.592 1060.27 Q783.911 1058.75 781.197 1058.75 Q779.273 1058.75 777.126 1059.42 Q774.999 1060.09 772.568 1061.44 L772.568 1057.31 Q775.04 1056.32 777.186 1055.81 Q779.333 1055.31 781.116 1055.31 Q785.815 1055.31 788.61 1057.65 Q791.405 1060 791.405 1063.93 Q791.405 1065.8 790.696 1067.48 Q790.008 1069.14 788.164 1071.41 Q787.658 1072 784.944 1074.81 Q782.23 1077.61 777.288 1082.65 Z" fill="#000000" fill-rule="evenodd" fill-opacity="1"></path><path clip-path="url(#clip760)" d="M803.679 1082.65 L817.959 1082.65 L817.959 1086.09 L798.758 1086.09 L798.758 1082.65 Q801.087 1080.24 805.097 1076.19 Q809.128 1072.12 810.161 1070.94 Q812.126 1068.73 812.895 1067.22 Q813.685 1065.68 813.685 1064.2 Q813.685 1061.79 811.984 1060.27 Q810.303 1058.75 807.589 1058.75 Q805.664 1058.75 803.517 1059.42 Q801.391 1060.09 798.96 1061.44 L798.96 1057.31 Q801.431 1056.32 803.578 1055.81 Q805.725 1055.31 807.507 1055.31 Q812.207 1055.31 815.002 1057.65 Q817.797 1060 817.797 1063.93 Q817.797 1065.8 817.088 1067.48 Q816.399 1069.14 814.556 1071.41 Q814.05 1072 811.336 1074.81 Q808.621 1077.61 803.679 1082.65 Z" fill="#000000" fill-rule="evenodd" fill-opacity="1"></path><path clip-path="url(#clip760)" d="M826.547 1080.95 L830.82 1080.95 L830.82 1086.09 L826.547 1086.09 L826.547 1080.95 Z" fill="#000000" fill-rule="evenodd" fill-opacity="1"></path><path clip-path="url(#clip760)" d="M843.257 1082.65 L857.536 1082.65 L857.536 1086.09 L838.335 1086.09 L838.335 1082.65 Q840.664 1080.24 844.675 1076.19 Q848.705 1072.12 849.738 1070.94 Q851.703 1068.73 852.473 1067.22 Q853.262 1065.68 853.262 1064.2 Q853.262 1061.79 851.561 1060.27 Q849.88 1058.75 847.166 1058.75 Q845.242 1058.75 843.095 1059.42 Q840.968 1060.09 838.537 1061.44 L838.537 1057.31 Q841.008 1056.32 843.155 1055.81 Q845.302 1055.31 847.085 1055.31 Q851.784 1055.31 854.579 1057.65 Q857.374 1060 857.374 1063.93 Q857.374 1065.8 856.665 1067.48 Q855.977 1069.14 854.133 1071.41 Q853.627 1072 850.913 1074.81 Q848.199 1077.61 843.257 1082.65 Z" fill="#000000" fill-rule="evenodd" fill-opacity="1"></path><path clip-path="url(#clip760)" d="M874.874 1058.55 Q871.714 1058.55 870.114 1061.67 Q868.534 1064.76 868.534 1071 Q868.534 1077.22 870.114 1080.34 Q871.714 1083.44 874.874 1083.44 Q878.054 1083.44 879.634 1080.34 Q881.234 1077.22 881.234 1071 Q881.234 1064.76 879.634 1061.67 Q878.054 1058.55 874.874 1058.55 M874.874 1055.31 Q879.958 1055.31 882.632 1059.34 Q885.325 1063.35 885.325 1071 Q885.325 1078.64 882.632 1082.67 Q879.958 1086.68 874.874 1086.68 Q869.79 1086.68 867.096 1082.67 Q864.423 1078.64 864.423 1071 Q864.423 1063.35 867.096 1059.34 Q869.79 1055.31 874.874 1055.31 Z" fill="#000000" fill-rule="evenodd" fill-opacity="1"></path><path clip-path="url(#clip760)" d="M904.911 1069.79 Q907.848 1070.42 909.489 1072.4 Q911.15 1074.39 911.15 1077.3 Q911.15 1081.78 908.071 1084.23 Q904.993 1086.68 899.321 1086.68 Q897.417 1086.68 895.392 1086.29 Q893.387 1085.93 891.24 1085.18 L891.24 1081.23 Q892.941 1082.22 894.967 1082.73 Q896.992 1083.24 899.2 1083.24 Q903.048 1083.24 905.053 1081.72 Q907.079 1080.2 907.079 1077.3 Q907.079 1074.63 905.195 1073.13 Q903.332 1071.61 899.99 1071.61 L896.465 1071.61 L896.465 1068.25 L900.152 1068.25 Q903.17 1068.25 904.77 1067.05 Q906.37 1065.84 906.37 1063.57 Q906.37 1061.24 904.709 1060 Q903.068 1058.75 899.99 1058.75 Q898.309 1058.75 896.384 1059.11 Q894.46 1059.48 892.151 1060.25 L892.151 1056.6 Q894.48 1055.95 896.506 1055.63 Q898.552 1055.31 900.354 1055.31 Q905.013 1055.31 907.727 1057.43 Q910.441 1059.54 910.441 1063.14 Q910.441 1065.66 909.003 1067.4 Q907.565 1069.12 904.911 1069.79 Z" fill="#000000" fill-rule="evenodd" fill-opacity="1"></path><path clip-path="url(#clip760)" d="M774.128 903.421 L780.812 903.421 L780.812 880.352 L773.541 881.81 L773.541 878.083 L780.772 876.625 L784.863 876.625 L784.863 903.421 L791.547 903.421 L791.547 906.865 L774.128 906.865 L774.128 903.421 Z" fill="#000000" fill-rule="evenodd" fill-opacity="1"></path><path clip-path="url(#clip760)" d="M798.778 876.625 L818.222 876.625 L818.222 878.367 L807.244 906.865 L802.97 906.865 L813.3 880.068 L798.778 880.068 L798.778 876.625 Z" fill="#000000" fill-rule="evenodd" fill-opacity="1"></path><path clip-path="url(#clip760)" d="M826.202 901.72 L830.476 901.72 L830.476 906.865 L826.202 906.865 L826.202 901.72 Z" fill="#000000" fill-rule="evenodd" fill-opacity="1"></path><path clip-path="url(#clip760)" d="M838.355 876.625 L857.799 876.625 L857.799 878.367 L846.822 906.865 L842.548 906.865 L852.878 880.068 L838.355 880.068 L838.355 876.625 Z" fill="#000000" fill-rule="evenodd" fill-opacity="1"></path><path clip-path="url(#clip760)" d="M875.036 890.114 Q872.281 890.114 870.661 891.998 Q869.061 893.882 869.061 897.163 Q869.061 900.424 870.661 902.328 Q872.281 904.211 875.036 904.211 Q877.791 904.211 879.391 902.328 Q881.011 900.424 881.011 897.163 Q881.011 893.882 879.391 891.998 Q877.791 890.114 875.036 890.114 M883.158 877.293 L883.158 881.02 Q881.619 880.291 880.039 879.906 Q878.479 879.521 876.94 879.521 Q872.889 879.521 870.742 882.255 Q868.615 884.99 868.312 890.519 Q869.507 888.757 871.309 887.825 Q873.112 886.873 875.279 886.873 Q879.836 886.873 882.469 889.648 Q885.123 892.403 885.123 897.163 Q885.123 901.821 882.368 904.637 Q879.614 907.452 875.036 907.452 Q869.79 907.452 867.015 903.442 Q864.24 899.411 864.24 891.775 Q864.24 884.605 867.643 880.352 Q871.046 876.078 876.778 876.078 Q878.317 876.078 879.877 876.382 Q881.457 876.685 883.158 877.293 Z" fill="#000000" fill-rule="evenodd" fill-opacity="1"></path><path clip-path="url(#clip760)" d="M895.696 903.421 L909.975 903.421 L909.975 906.865 L890.774 906.865 L890.774 903.421 Q893.103 901.011 897.114 896.96 Q901.144 892.889 902.177 891.714 Q904.142 889.507 904.911 887.987 Q905.701 886.448 905.701 884.97 Q905.701 882.559 904 881.04 Q902.319 879.521 899.605 879.521 Q897.681 879.521 895.534 880.189 Q893.407 880.858 890.976 882.215 L890.976 878.083 Q893.447 877.091 895.594 876.584 Q897.741 876.078 899.524 876.078 Q904.223 876.078 907.018 878.427 Q909.813 880.777 909.813 884.706 Q909.813 886.57 909.104 888.251 Q908.416 889.912 906.572 892.18 Q906.066 892.768 903.352 895.583 Q900.638 898.378 895.696 903.421 Z" fill="#000000" fill-rule="evenodd" fill-opacity="1"></path><path clip-path="url(#clip760)" d="M774.128 724.194 L780.812 724.194 L780.812 701.124 L773.541 702.582 L773.541 698.855 L780.772 697.397 L784.863 697.397 L784.863 724.194 L791.547 724.194 L791.547 727.637 L774.128 727.637 L774.128 724.194 Z" fill="#000000" fill-rule="evenodd" fill-opacity="1"></path><path clip-path="url(#clip760)" d="M812.207 711.332 Q815.143 711.96 816.784 713.945 Q818.445 715.93 818.445 718.847 Q818.445 723.323 815.366 725.774 Q812.288 728.224 806.616 728.224 Q804.712 728.224 802.687 727.84 Q800.682 727.475 798.535 726.726 L798.535 722.776 Q800.236 723.768 802.262 724.275 Q804.287 724.781 806.495 724.781 Q810.343 724.781 812.348 723.262 Q814.374 721.743 814.374 718.847 Q814.374 716.173 812.49 714.674 Q810.627 713.155 807.285 713.155 L803.76 713.155 L803.76 709.793 L807.447 709.793 Q810.465 709.793 812.065 708.598 Q813.665 707.383 813.665 705.114 Q813.665 702.785 812.004 701.549 Q810.363 700.293 807.285 700.293 Q805.604 700.293 803.679 700.658 Q801.755 701.023 799.446 701.792 L799.446 698.146 Q801.775 697.498 803.801 697.174 Q805.847 696.85 807.649 696.85 Q812.308 696.85 815.022 698.977 Q817.736 701.083 817.736 704.689 Q817.736 707.2 816.298 708.942 Q814.86 710.664 812.207 711.332 Z" fill="#000000" fill-rule="evenodd" fill-opacity="1"></path><path clip-path="url(#clip760)" d="M826.202 722.492 L830.476 722.492 L830.476 727.637 L826.202 727.637 L826.202 722.492 Z" fill="#000000" fill-rule="evenodd" fill-opacity="1"></path><path clip-path="url(#clip760)" d="M851.784 711.332 Q854.721 711.96 856.361 713.945 Q858.022 715.93 858.022 718.847 Q858.022 723.323 854.944 725.774 Q851.865 728.224 846.194 728.224 Q844.29 728.224 842.264 727.84 Q840.259 727.475 838.112 726.726 L838.112 722.776 Q839.813 723.768 841.839 724.275 Q843.864 724.781 846.072 724.781 Q849.92 724.781 851.926 723.262 Q853.951 721.743 853.951 718.847 Q853.951 716.173 852.067 714.674 Q850.204 713.155 846.862 713.155 L843.338 713.155 L843.338 709.793 L847.024 709.793 Q850.042 709.793 851.642 708.598 Q853.242 707.383 853.242 705.114 Q853.242 702.785 851.581 701.549 Q849.941 700.293 846.862 700.293 Q845.181 700.293 843.257 700.658 Q841.333 701.023 839.024 701.792 L839.024 698.146 Q841.353 697.498 843.378 697.174 Q845.424 696.85 847.227 696.85 Q851.885 696.85 854.599 698.977 Q857.313 701.083 857.313 704.689 Q857.313 707.2 855.875 708.942 Q854.437 710.664 851.784 711.332 Z" fill="#000000" fill-rule="evenodd" fill-opacity="1"></path><path clip-path="url(#clip760)" d="M869.304 724.194 L883.583 724.194 L883.583 727.637 L864.382 727.637 L864.382 724.194 Q866.711 721.784 870.722 717.733 Q874.753 713.661 875.785 712.487 Q877.75 710.279 878.52 708.76 Q879.31 707.221 879.31 705.742 Q879.31 703.332 877.608 701.813 Q875.927 700.293 873.213 700.293 Q871.289 700.293 869.142 700.962 Q867.015 701.63 864.585 702.987 L864.585 698.855 Q867.056 697.863 869.203 697.357 Q871.35 696.85 873.132 696.85 Q877.831 696.85 880.626 699.2 Q883.421 701.549 883.421 705.479 Q883.421 707.342 882.713 709.023 Q882.024 710.684 880.181 712.953 Q879.674 713.54 876.96 716.355 Q874.246 719.15 869.304 724.194 Z" fill="#000000" fill-rule="evenodd" fill-opacity="1"></path><path clip-path="url(#clip760)" d="M895.696 724.194 L909.975 724.194 L909.975 727.637 L890.774 727.637 L890.774 724.194 Q893.103 721.784 897.114 717.733 Q901.144 713.661 902.177 712.487 Q904.142 710.279 904.911 708.76 Q905.701 707.221 905.701 705.742 Q905.701 703.332 904 701.813 Q902.319 700.293 899.605 700.293 Q897.681 700.293 895.534 700.962 Q893.407 701.63 890.976 702.987 L890.976 698.855 Q893.447 697.863 895.594 697.357 Q897.741 696.85 899.524 696.85 Q904.223 696.85 907.018 699.2 Q909.813 701.549 909.813 705.479 Q909.813 707.342 909.104 709.023 Q908.416 710.684 906.572 712.953 Q906.066 713.54 903.352 716.355 Q900.638 719.15 895.696 724.194 Z" fill="#000000" fill-rule="evenodd" fill-opacity="1"></path><path clip-path="url(#clip760)" d="M796.074 534.049 Q793.157 534.049 791.476 535.609 Q789.815 537.168 789.815 539.903 Q789.815 542.637 791.476 544.197 Q793.157 545.756 796.074 545.756 Q798.99 545.756 800.672 544.197 Q802.353 542.617 802.353 539.903 Q802.353 537.168 800.672 535.609 Q799.011 534.049 796.074 534.049 M791.982 532.307 Q789.349 531.659 787.871 529.856 Q786.412 528.054 786.412 525.461 Q786.412 521.836 788.985 519.729 Q791.577 517.623 796.074 517.623 Q800.591 517.623 803.163 519.729 Q805.735 521.836 805.735 525.461 Q805.735 528.054 804.257 529.856 Q802.798 531.659 800.185 532.307 Q803.143 532.996 804.783 535.001 Q806.444 537.006 806.444 539.903 Q806.444 544.298 803.75 546.647 Q801.077 548.997 796.074 548.997 Q791.071 548.997 788.377 546.647 Q785.704 544.298 785.704 539.903 Q785.704 537.006 787.364 535.001 Q789.025 532.996 791.982 532.307 M790.484 525.846 Q790.484 528.195 791.942 529.512 Q793.42 530.829 796.074 530.829 Q798.707 530.829 800.185 529.512 Q801.684 528.195 801.684 525.846 Q801.684 523.496 800.185 522.18 Q798.707 520.863 796.074 520.863 Q793.42 520.863 791.942 522.18 Q790.484 523.496 790.484 525.846 Z" fill="#000000" fill-rule="evenodd" fill-opacity="1"></path><path clip-path="url(#clip760)" d="M813.716 543.265 L817.989 543.265 L817.989 548.409 L813.716 548.409 L813.716 543.265 Z" fill="#000000" fill-rule="evenodd" fill-opacity="1"></path><path clip-path="url(#clip760)" d="M835.651 534.049 Q832.735 534.049 831.053 535.609 Q829.393 537.168 829.393 539.903 Q829.393 542.637 831.053 544.197 Q832.735 545.756 835.651 545.756 Q838.568 545.756 840.249 544.197 Q841.93 542.617 841.93 539.903 Q841.93 537.168 840.249 535.609 Q838.588 534.049 835.651 534.049 M831.56 532.307 Q828.927 531.659 827.448 529.856 Q825.99 528.054 825.99 525.461 Q825.99 521.836 828.562 519.729 Q831.155 517.623 835.651 517.623 Q840.168 517.623 842.74 519.729 Q845.313 521.836 845.313 525.461 Q845.313 528.054 843.834 529.856 Q842.376 531.659 839.763 532.307 Q842.72 532.996 844.361 535.001 Q846.021 537.006 846.021 539.903 Q846.021 544.298 843.328 546.647 Q840.654 548.997 835.651 548.997 Q830.648 548.997 827.954 546.647 Q825.281 544.298 825.281 539.903 Q825.281 537.006 826.942 535.001 Q828.603 532.996 831.56 532.307 M830.061 525.846 Q830.061 528.195 831.519 529.512 Q832.998 530.829 835.651 530.829 Q838.284 530.829 839.763 529.512 Q841.262 528.195 841.262 525.846 Q841.262 523.496 839.763 522.18 Q838.284 520.863 835.651 520.863 Q832.998 520.863 831.519 522.18 Q830.061 523.496 830.061 525.846 Z" fill="#000000" fill-rule="evenodd" fill-opacity="1"></path><path clip-path="url(#clip760)" d="M862.043 534.049 Q859.126 534.049 857.445 535.609 Q855.784 537.168 855.784 539.903 Q855.784 542.637 857.445 544.197 Q859.126 545.756 862.043 545.756 Q864.959 545.756 866.641 544.197 Q868.322 542.617 868.322 539.903 Q868.322 537.168 866.641 535.609 Q864.98 534.049 862.043 534.049 M857.951 532.307 Q855.318 531.659 853.84 529.856 Q852.381 528.054 852.381 525.461 Q852.381 521.836 854.954 519.729 Q857.546 517.623 862.043 517.623 Q866.56 517.623 869.132 519.729 Q871.704 521.836 871.704 525.461 Q871.704 528.054 870.226 529.856 Q868.767 531.659 866.154 532.307 Q869.112 532.996 870.752 535.001 Q872.413 537.006 872.413 539.903 Q872.413 544.298 869.719 546.647 Q867.046 548.997 862.043 548.997 Q857.04 548.997 854.346 546.647 Q851.672 544.298 851.672 539.903 Q851.672 537.006 853.333 535.001 Q854.994 532.996 857.951 532.307 M856.453 525.846 Q856.453 528.195 857.911 529.512 Q859.389 530.829 862.043 530.829 Q864.676 530.829 866.154 529.512 Q867.653 528.195 867.653 525.846 Q867.653 523.496 866.154 522.18 Q864.676 520.863 862.043 520.863 Q859.389 520.863 857.911 522.18 Q856.453 523.496 856.453 525.846 Z" fill="#000000" fill-rule="evenodd" fill-opacity="1"></path><path clip-path="url(#clip760)" d="M880.393 544.966 L887.077 544.966 L887.077 521.896 L879.806 523.355 L879.806 519.628 L887.037 518.169 L891.128 518.169 L891.128 544.966 L897.812 544.966 L897.812 548.409 L880.393 548.409 L880.393 544.966 Z" fill="#000000" fill-rule="evenodd" fill-opacity="1"></path><path clip-path="url(#clip760)" d="M798.96 342.507 L788.63 358.65 L798.96 358.65 L798.96 342.507 M797.887 338.942 L803.031 338.942 L803.031 358.65 L807.345 358.65 L807.345 362.052 L803.031 362.052 L803.031 369.182 L798.96 369.182 L798.96 362.052 L785.309 362.052 L785.309 358.103 L797.887 338.942 Z" fill="#000000" fill-rule="evenodd" fill-opacity="1"></path><path clip-path="url(#clip760)" d="M814.11 364.037 L818.384 364.037 L818.384 369.182 L814.11 369.182 L814.11 364.037 Z" fill="#000000" fill-rule="evenodd" fill-opacity="1"></path><path clip-path="url(#clip760)" d="M838.537 342.507 L828.208 358.65 L838.537 358.65 L838.537 342.507 M837.464 338.942 L842.609 338.942 L842.609 358.65 L846.923 358.65 L846.923 362.052 L842.609 362.052 L842.609 369.182 L838.537 369.182 L838.537 362.052 L824.886 362.052 L824.886 358.103 L837.464 338.942 Z" fill="#000000" fill-rule="evenodd" fill-opacity="1"></path><path clip-path="url(#clip760)" d="M864.929 342.507 L854.599 358.65 L864.929 358.65 L864.929 342.507 M863.856 338.942 L869 338.942 L869 358.65 L873.314 358.65 L873.314 362.052 L869 362.052 L869 369.182 L864.929 369.182 L864.929 362.052 L851.278 362.052 L851.278 358.103 L863.856 338.942 Z" fill="#000000" fill-rule="evenodd" fill-opacity="1"></path><path clip-path="url(#clip760)" d="M880.788 365.739 L887.472 365.739 L887.472 342.669 L880.201 344.127 L880.201 340.4 L887.432 338.942 L891.523 338.942 L891.523 365.739 L898.207 365.739 L898.207 369.182 L880.788 369.182 L880.788 365.739 Z" fill="#000000" fill-rule="evenodd" fill-opacity="1"></path><path clip-path="url(#clip760)" d="M1122.33 1073.07 L1133.25 1073.07 L1133.25 1076.39 L1122.33 1076.39 L1122.33 1073.07 Z" fill="#000000" fill-rule="evenodd" fill-opacity="1"></path><path clip-path="url(#clip760)" d="M1152.11 1069.79 Q1155.05 1070.42 1156.69 1072.4 Q1158.35 1074.39 1158.35 1077.3 Q1158.35 1081.78 1155.27 1084.23 Q1152.19 1086.68 1146.52 1086.68 Q1144.61 1086.68 1142.59 1086.29 Q1140.58 1085.93 1138.44 1085.18 L1138.44 1081.23 Q1140.14 1082.22 1142.16 1082.73 Q1144.19 1083.24 1146.4 1083.24 Q1150.25 1083.24 1152.25 1081.72 Q1154.28 1080.2 1154.28 1077.3 Q1154.28 1074.63 1152.39 1073.13 Q1150.53 1071.61 1147.19 1071.61 L1143.66 1071.61 L1143.66 1068.25 L1147.35 1068.25 Q1150.37 1068.25 1151.97 1067.05 Q1153.57 1065.84 1153.57 1063.57 Q1153.57 1061.24 1151.91 1060 Q1150.27 1058.75 1147.19 1058.75 Q1145.51 1058.75 1143.58 1059.11 Q1141.66 1059.48 1139.35 1060.25 L1139.35 1056.6 Q1141.68 1055.95 1143.7 1055.63 Q1145.75 1055.31 1147.55 1055.31 Q1152.21 1055.31 1154.92 1057.43 Q1157.64 1059.54 1157.64 1063.14 Q1157.64 1065.66 1156.2 1067.4 Q1154.76 1069.12 1152.11 1069.79 Z" fill="#000000" fill-rule="evenodd" fill-opacity="1"></path><path clip-path="url(#clip760)" d="M1166.81 1082.65 L1173.5 1082.65 L1173.5 1059.58 L1166.23 1061.04 L1166.23 1057.31 L1173.46 1055.85 L1177.55 1055.85 L1177.55 1082.65 L1184.23 1082.65 L1184.23 1086.09 L1166.81 1086.09 L1166.81 1082.65 Z" fill="#000000" fill-rule="evenodd" fill-opacity="1"></path><path clip-path="url(#clip760)" d="M1192.5 1080.95 L1196.77 1080.95 L1196.77 1086.09 L1192.5 1086.09 L1192.5 1080.95 Z" fill="#000000" fill-rule="evenodd" fill-opacity="1"></path><path clip-path="url(#clip760)" d="M1214.43 1058.55 Q1211.27 1058.55 1209.67 1061.67 Q1208.09 1064.76 1208.09 1071 Q1208.09 1077.22 1209.67 1080.34 Q1211.27 1083.44 1214.43 1083.44 Q1217.61 1083.44 1219.19 1080.34 Q1220.79 1077.22 1220.79 1071 Q1220.79 1064.76 1219.19 1061.67 Q1217.61 1058.55 1214.43 1058.55 M1214.43 1055.31 Q1219.52 1055.31 1222.19 1059.34 Q1224.88 1063.35 1224.88 1071 Q1224.88 1078.64 1222.19 1082.67 Q1219.52 1086.68 1214.43 1086.68 Q1209.35 1086.68 1206.65 1082.67 Q1203.98 1078.64 1203.98 1071 Q1203.98 1063.35 1206.65 1059.34 Q1209.35 1055.31 1214.43 1055.31 Z" fill="#000000" fill-rule="evenodd" fill-opacity="1"></path><path clip-path="url(#clip760)" d="M1240.82 1071.73 Q1237.91 1071.73 1236.23 1073.29 Q1234.56 1074.85 1234.56 1077.59 Q1234.56 1080.32 1236.23 1081.88 Q1237.91 1083.44 1240.82 1083.44 Q1243.74 1083.44 1245.42 1081.88 Q1247.1 1080.3 1247.1 1077.59 Q1247.1 1074.85 1245.42 1073.29 Q1243.76 1071.73 1240.82 1071.73 M1236.73 1069.99 Q1234.1 1069.34 1232.62 1067.54 Q1231.16 1065.74 1231.16 1063.14 Q1231.16 1059.52 1233.73 1057.41 Q1236.33 1055.31 1240.82 1055.31 Q1245.34 1055.31 1247.91 1057.41 Q1250.48 1059.52 1250.48 1063.14 Q1250.48 1065.74 1249.01 1067.54 Q1247.55 1069.34 1244.94 1069.99 Q1247.89 1070.68 1249.53 1072.68 Q1251.19 1074.69 1251.19 1077.59 Q1251.19 1081.98 1248.5 1084.33 Q1245.83 1086.68 1240.82 1086.68 Q1235.82 1086.68 1233.13 1084.33 Q1230.45 1081.98 1230.45 1077.59 Q1230.45 1074.69 1232.11 1072.68 Q1233.77 1070.68 1236.73 1069.99 M1235.23 1063.53 Q1235.23 1065.88 1236.69 1067.19 Q1238.17 1068.51 1240.82 1068.51 Q1243.46 1068.51 1244.94 1067.19 Q1246.43 1065.88 1246.43 1063.53 Q1246.43 1061.18 1244.94 1059.86 Q1243.46 1058.55 1240.82 1058.55 Q1238.17 1058.55 1236.69 1059.86 Q1235.23 1061.18 1235.23 1063.53 Z" fill="#000000" fill-rule="evenodd" fill-opacity="1"></path><path clip-path="url(#clip760)" d="M1269.71 1059.42 L1259.38 1075.56 L1269.71 1075.56 L1269.71 1059.42 M1268.63 1055.85 L1273.78 1055.85 L1273.78 1075.56 L1278.09 1075.56 L1278.09 1078.96 L1273.78 1078.96 L1273.78 1086.09 L1269.71 1086.09 L1269.71 1078.96 L1256.05 1078.96 L1256.05 1075.01 L1268.63 1055.85 Z" fill="#000000" fill-rule="evenodd" fill-opacity="1"></path><path clip-path="url(#clip760)" d="M1122.63 893.841 L1133.55 893.841 L1133.55 897.163 L1122.63 897.163 L1122.63 893.841 Z" fill="#000000" fill-rule="evenodd" fill-opacity="1"></path><path clip-path="url(#clip760)" d="M1152.4 890.56 Q1155.34 891.188 1156.98 893.173 Q1158.64 895.158 1158.64 898.074 Q1158.64 902.55 1155.56 905.001 Q1152.48 907.452 1146.81 907.452 Q1144.91 907.452 1142.88 907.067 Q1140.88 906.703 1138.73 905.953 L1138.73 902.004 Q1140.43 902.996 1142.46 903.502 Q1144.48 904.009 1146.69 904.009 Q1150.54 904.009 1152.54 902.49 Q1154.57 900.971 1154.57 898.074 Q1154.57 895.401 1152.69 893.902 Q1150.82 892.383 1147.48 892.383 L1143.96 892.383 L1143.96 889.02 L1147.64 889.02 Q1150.66 889.02 1152.26 887.825 Q1153.86 886.61 1153.86 884.342 Q1153.86 882.012 1152.2 880.777 Q1150.56 879.521 1147.48 879.521 Q1145.8 879.521 1143.88 879.886 Q1141.95 880.25 1139.64 881.02 L1139.64 877.374 Q1141.97 876.726 1144 876.402 Q1146.04 876.078 1147.85 876.078 Q1152.5 876.078 1155.22 878.205 Q1157.93 880.311 1157.93 883.916 Q1157.93 886.428 1156.49 888.17 Q1155.06 889.891 1152.4 890.56 Z" fill="#000000" fill-rule="evenodd" fill-opacity="1"></path><path clip-path="url(#clip760)" d="M1165.37 876.625 L1184.81 876.625 L1184.81 878.367 L1173.83 906.865 L1169.56 906.865 L1179.89 880.068 L1165.37 880.068 L1165.37 876.625 Z" fill="#000000" fill-rule="evenodd" fill-opacity="1"></path><path clip-path="url(#clip760)" d="M1192.79 901.72 L1197.06 901.72 L1197.06 906.865 L1192.79 906.865 L1192.79 901.72 Z" fill="#000000" fill-rule="evenodd" fill-opacity="1"></path><path clip-path="url(#clip760)" d="M1206.1 906.237 L1206.1 902.51 Q1207.64 903.239 1209.22 903.624 Q1210.8 904.009 1212.32 904.009 Q1216.37 904.009 1218.49 901.295 Q1220.64 898.56 1220.94 893.011 Q1219.77 894.752 1217.97 895.684 Q1216.16 896.616 1213.98 896.616 Q1209.44 896.616 1206.79 893.882 Q1204.15 891.127 1204.15 886.367 Q1204.15 881.709 1206.91 878.893 Q1209.66 876.078 1214.24 876.078 Q1219.49 876.078 1222.24 880.108 Q1225.01 884.119 1225.01 891.775 Q1225.01 898.925 1221.61 903.199 Q1218.23 907.452 1212.5 907.452 Q1210.96 907.452 1209.38 907.148 Q1207.8 906.844 1206.1 906.237 M1214.24 893.416 Q1216.99 893.416 1218.59 891.532 Q1220.21 889.648 1220.21 886.367 Q1220.21 883.106 1218.59 881.222 Q1216.99 879.319 1214.24 879.319 Q1211.48 879.319 1209.86 881.222 Q1208.26 883.106 1208.26 886.367 Q1208.26 889.648 1209.86 891.532 Q1211.48 893.416 1214.24 893.416 Z" fill="#000000" fill-rule="evenodd" fill-opacity="1"></path><path clip-path="url(#clip760)" d="M1241.62 890.114 Q1238.87 890.114 1237.25 891.998 Q1235.65 893.882 1235.65 897.163 Q1235.65 900.424 1237.25 902.328 Q1238.87 904.211 1241.62 904.211 Q1244.38 904.211 1245.98 902.328 Q1247.6 900.424 1247.6 897.163 Q1247.6 893.882 1245.98 891.998 Q1244.38 890.114 1241.62 890.114 M1249.75 877.293 L1249.75 881.02 Q1248.21 880.291 1246.63 879.906 Q1245.07 879.521 1243.53 879.521 Q1239.48 879.521 1237.33 882.255 Q1235.2 884.99 1234.9 890.519 Q1236.09 888.757 1237.9 887.825 Q1239.7 886.873 1241.87 886.873 Q1246.42 886.873 1249.06 889.648 Q1251.71 892.403 1251.71 897.163 Q1251.71 901.821 1248.96 904.637 Q1246.2 907.452 1241.62 907.452 Q1236.38 907.452 1233.6 903.442 Q1230.83 899.411 1230.83 891.775 Q1230.83 884.605 1234.23 880.352 Q1237.63 876.078 1243.37 876.078 Q1244.9 876.078 1246.46 876.382 Q1248.04 876.685 1249.75 877.293 Z" fill="#000000" fill-rule="evenodd" fill-opacity="1"></path><path clip-path="url(#clip760)" d="M1258.88 906.237 L1258.88 902.51 Q1260.42 903.239 1262 903.624 Q1263.58 904.009 1265.1 904.009 Q1269.15 904.009 1271.28 901.295 Q1273.42 898.56 1273.73 893.011 Q1272.55 894.752 1270.75 895.684 Q1268.95 896.616 1266.76 896.616 Q1262.22 896.616 1259.57 893.882 Q1256.94 891.127 1256.94 886.367 Q1256.94 881.709 1259.69 878.893 Q1262.45 876.078 1267.02 876.078 Q1272.27 876.078 1275.02 880.108 Q1277.8 884.119 1277.8 891.775 Q1277.8 898.925 1274.4 903.199 Q1271.01 907.452 1265.28 907.452 Q1263.74 907.452 1262.16 907.148 Q1260.58 906.844 1258.88 906.237 M1267.02 893.416 Q1269.78 893.416 1271.38 891.532 Q1273 889.648 1273 886.367 Q1273 883.106 1271.38 881.222 Q1269.78 879.319 1267.02 879.319 Q1264.27 879.319 1262.65 881.222 Q1261.05 883.106 1261.05 886.367 Q1261.05 889.648 1262.65 891.532 Q1264.27 893.416 1267.02 893.416 Z" fill="#000000" fill-rule="evenodd" fill-opacity="1"></path><path clip-path="url(#clip760)" d="M1324.28 903.421 L1338.56 903.421 L1338.56 906.865 L1319.36 906.865 L1319.36 903.421 Q1321.69 901.011 1325.7 896.96 Q1329.73 892.889 1330.76 891.714 Q1332.73 889.507 1333.5 887.987 Q1334.29 886.448 1334.29 884.97 Q1334.29 882.559 1332.59 881.04 Q1330.9 879.521 1328.19 879.521 Q1326.27 879.521 1324.12 880.189 Q1321.99 880.858 1319.56 882.215 L1319.56 878.083 Q1322.03 877.091 1324.18 876.584 Q1326.33 876.078 1328.11 876.078 Q1332.81 876.078 1335.6 878.427 Q1338.4 880.777 1338.4 884.706 Q1338.4 886.57 1337.69 888.251 Q1337 889.912 1335.16 892.18 Q1334.65 892.768 1331.94 895.583 Q1329.22 898.378 1324.28 903.421 Z" fill="#000000" fill-rule="evenodd" fill-opacity="1"></path><path clip-path="url(#clip760)" d="M1347.15 901.72 L1351.42 901.72 L1351.42 906.865 L1347.15 906.865 L1347.15 901.72 Z" fill="#000000" fill-rule="evenodd" fill-opacity="1"></path><path clip-path="url(#clip760)" d="M1371.58 880.189 L1361.25 896.332 L1371.58 896.332 L1371.58 880.189 M1370.5 876.625 L1375.65 876.625 L1375.65 896.332 L1379.96 896.332 L1379.96 899.735 L1375.65 899.735 L1375.65 906.865 L1371.58 906.865 L1371.58 899.735 L1357.92 899.735 L1357.92 895.785 L1370.5 876.625 Z" fill="#000000" fill-rule="evenodd" fill-opacity="1"></path><path clip-path="url(#clip760)" d="M1397.97 880.189 L1387.64 896.332 L1397.97 896.332 L1397.97 880.189 M1396.89 876.625 L1402.04 876.625 L1402.04 896.332 L1406.35 896.332 L1406.35 899.735 L1402.04 899.735 L1402.04 906.865 L1397.97 906.865 L1397.97 899.735 L1384.32 899.735 L1384.32 895.785 L1396.89 876.625 Z" fill="#000000" fill-rule="evenodd" fill-opacity="1"></path><path clip-path="url(#clip760)" d="M1413.16 876.625 L1429.22 876.625 L1429.22 880.068 L1416.9 880.068 L1416.9 887.481 Q1417.8 887.177 1418.69 887.036 Q1419.58 886.873 1420.47 886.873 Q1425.53 886.873 1428.49 889.648 Q1431.45 892.423 1431.45 897.163 Q1431.45 902.044 1428.41 904.758 Q1425.37 907.452 1419.84 907.452 Q1417.94 907.452 1415.95 907.128 Q1413.99 906.804 1411.88 906.156 L1411.88 902.044 Q1413.7 903.037 1415.65 903.523 Q1417.59 904.009 1419.76 904.009 Q1423.26 904.009 1425.31 902.166 Q1427.36 900.322 1427.36 897.163 Q1427.36 894.003 1425.31 892.16 Q1423.26 890.317 1419.76 890.317 Q1418.12 890.317 1416.48 890.681 Q1414.86 891.046 1413.16 891.816 L1413.16 876.625 Z" fill="#000000" fill-rule="evenodd" fill-opacity="1"></path><path clip-path="url(#clip760)" d="M1136.28 714.613 L1147.2 714.613 L1147.2 717.935 L1136.28 717.935 L1136.28 714.613 Z" fill="#000000" fill-rule="evenodd" fill-opacity="1"></path><path clip-path="url(#clip760)" d="M1164.9 700.962 L1154.57 717.105 L1164.9 717.105 L1164.9 700.962 M1163.83 697.397 L1168.97 697.397 L1168.97 717.105 L1173.28 717.105 L1173.28 720.507 L1168.97 720.507 L1168.97 727.637 L1164.9 727.637 L1164.9 720.507 L1151.25 720.507 L1151.25 716.558 L1163.83 697.397 Z" fill="#000000" fill-rule="evenodd" fill-opacity="1"></path><path clip-path="url(#clip760)" d="M1183.57 724.194 L1197.85 724.194 L1197.85 727.637 L1178.65 727.637 L1178.65 724.194 Q1180.98 721.784 1184.99 717.733 Q1189.02 713.661 1190.06 712.487 Q1192.02 710.279 1192.79 708.76 Q1193.58 707.221 1193.58 705.742 Q1193.58 703.332 1191.88 701.813 Q1190.2 700.293 1187.48 700.293 Q1185.56 700.293 1183.41 700.962 Q1181.29 701.63 1178.85 702.987 L1178.85 698.855 Q1181.33 697.863 1183.47 697.357 Q1185.62 696.85 1187.4 696.85 Q1192.1 696.85 1194.9 699.2 Q1197.69 701.549 1197.69 705.479 Q1197.69 707.342 1196.98 709.023 Q1196.29 710.684 1194.45 712.953 Q1193.94 713.54 1191.23 716.355 Q1188.52 719.15 1183.57 724.194 Z" fill="#000000" fill-rule="evenodd" fill-opacity="1"></path><path clip-path="url(#clip760)" d="M1206.44 722.492 L1210.72 722.492 L1210.72 727.637 L1206.44 727.637 L1206.44 722.492 Z" fill="#000000" fill-rule="evenodd" fill-opacity="1"></path><path clip-path="url(#clip760)" d="M1230.87 700.962 L1220.54 717.105 L1230.87 717.105 L1230.87 700.962 M1229.79 697.397 L1234.94 697.397 L1234.94 717.105 L1239.25 717.105 L1239.25 720.507 L1234.94 720.507 L1234.94 727.637 L1230.87 727.637 L1230.87 720.507 L1217.22 720.507 L1217.22 716.558 L1229.79 697.397 Z" fill="#000000" fill-rule="evenodd" fill-opacity="1"></path><path clip-path="url(#clip760)" d="M1246.73 724.194 L1253.41 724.194 L1253.41 701.124 L1246.14 702.582 L1246.14 698.855 L1253.37 697.397 L1257.46 697.397 L1257.46 724.194 L1264.15 724.194 L1264.15 727.637 L1246.73 727.637 L1246.73 724.194 Z" fill="#000000" fill-rule="evenodd" fill-opacity="1"></path><path clip-path="url(#clip760)" d="M1494.63 714.613 L1505.55 714.613 L1505.55 717.935 L1494.63 717.935 L1494.63 714.613 Z" fill="#000000" fill-rule="evenodd" fill-opacity="1"></path><path clip-path="url(#clip760)" d="M1512.72 724.194 L1519.4 724.194 L1519.4 701.124 L1512.13 702.582 L1512.13 698.855 L1519.36 697.397 L1523.46 697.397 L1523.46 724.194 L1530.14 724.194 L1530.14 727.637 L1512.72 727.637 L1512.72 724.194 Z" fill="#000000" fill-rule="evenodd" fill-opacity="1"></path><path clip-path="url(#clip760)" d="M1538.4 722.492 L1542.68 722.492 L1542.68 727.637 L1538.4 727.637 L1538.4 722.492 Z" fill="#000000" fill-rule="evenodd" fill-opacity="1"></path><path clip-path="url(#clip760)" d="M1551.71 727.009 L1551.71 723.282 Q1553.25 724.012 1554.83 724.396 Q1556.41 724.781 1557.93 724.781 Q1561.98 724.781 1564.11 722.067 Q1566.25 719.333 1566.56 713.783 Q1565.38 715.525 1563.58 716.457 Q1561.78 717.388 1559.59 717.388 Q1555.05 717.388 1552.4 714.654 Q1549.77 711.899 1549.77 707.14 Q1549.77 702.481 1552.52 699.666 Q1555.28 696.85 1559.85 696.85 Q1565.1 696.85 1567.85 700.881 Q1570.63 704.891 1570.63 712.547 Q1570.63 719.697 1567.23 723.971 Q1563.84 728.224 1558.11 728.224 Q1556.57 728.224 1554.99 727.921 Q1553.41 727.617 1551.71 727.009 M1559.85 714.188 Q1562.61 714.188 1564.21 712.304 Q1565.83 710.421 1565.83 707.14 Q1565.83 703.879 1564.21 701.995 Q1562.61 700.091 1559.85 700.091 Q1557.1 700.091 1555.48 701.995 Q1553.88 703.879 1553.88 707.14 Q1553.88 710.421 1555.48 712.304 Q1557.1 714.188 1559.85 714.188 Z" fill="#000000" fill-rule="evenodd" fill-opacity="1"></path><path clip-path="url(#clip760)" d="M1578.1 727.009 L1578.1 723.282 Q1579.64 724.012 1581.22 724.396 Q1582.8 724.781 1584.32 724.781 Q1588.37 724.781 1590.5 722.067 Q1592.65 719.333 1592.95 713.783 Q1591.77 715.525 1589.97 716.457 Q1588.17 717.388 1585.98 717.388 Q1581.44 717.388 1578.79 714.654 Q1576.16 711.899 1576.16 707.14 Q1576.16 702.481 1578.91 699.666 Q1581.67 696.85 1586.24 696.85 Q1591.49 696.85 1594.25 700.881 Q1597.02 704.891 1597.02 712.547 Q1597.02 719.697 1593.62 723.971 Q1590.23 728.224 1584.5 728.224 Q1582.96 728.224 1581.38 727.921 Q1579.8 727.617 1578.1 727.009 M1586.24 714.188 Q1589 714.188 1590.6 712.304 Q1592.22 710.421 1592.22 707.14 Q1592.22 703.879 1590.6 701.995 Q1589 700.091 1586.24 700.091 Q1583.49 700.091 1581.87 701.995 Q1580.27 703.879 1580.27 707.14 Q1580.27 710.421 1581.87 712.304 Q1583.49 714.188 1586.24 714.188 Z" fill="#000000" fill-rule="evenodd" fill-opacity="1"></path><path clip-path="url(#clip760)" d="M1604.41 697.397 L1620.47 697.397 L1620.47 700.84 L1608.16 700.84 L1608.16 708.254 Q1609.05 707.95 1609.94 707.808 Q1610.83 707.646 1611.72 707.646 Q1616.79 707.646 1619.75 710.421 Q1622.7 713.196 1622.7 717.935 Q1622.7 722.817 1619.66 725.531 Q1616.63 728.224 1611.1 728.224 Q1609.19 728.224 1607.21 727.9 Q1605.24 727.576 1603.14 726.928 L1603.14 722.817 Q1604.96 723.809 1606.9 724.295 Q1608.85 724.781 1611.02 724.781 Q1614.52 724.781 1616.57 722.938 Q1618.61 721.095 1618.61 717.935 Q1618.61 714.775 1616.57 712.932 Q1614.52 711.089 1611.02 711.089 Q1609.38 711.089 1607.73 711.454 Q1606.11 711.818 1604.41 712.588 L1604.41 697.397 Z" fill="#000000" fill-rule="evenodd" fill-opacity="1"></path><path clip-path="url(#clip760)" d="M803.466 1339.78 L814.383 1339.78 L814.383 1343.1 L803.466 1343.1 L803.466 1339.78 Z" fill="#000000" fill-rule="evenodd" fill-opacity="1"></path><path clip-path="url(#clip760)" d="M829.595 1325.26 Q826.435 1325.26 824.835 1328.38 Q823.255 1331.47 823.255 1337.71 Q823.255 1343.93 824.835 1347.05 Q826.435 1350.15 829.595 1350.15 Q832.775 1350.15 834.354 1347.05 Q835.955 1343.93 835.955 1337.71 Q835.955 1331.47 834.354 1328.38 Q832.775 1325.26 829.595 1325.26 M829.595 1322.02 Q834.679 1322.02 837.352 1326.05 Q840.046 1330.06 840.046 1337.71 Q840.046 1345.35 837.352 1349.38 Q834.679 1353.39 829.595 1353.39 Q824.511 1353.39 821.817 1349.38 Q819.143 1345.35 819.143 1337.71 Q819.143 1330.06 821.817 1326.05 Q824.511 1322.02 829.595 1322.02 Z" fill="#000000" fill-rule="evenodd" fill-opacity="1"></path><path clip-path="url(#clip760)" d="M847.236 1347.66 L851.51 1347.66 L851.51 1352.8 L847.236 1352.8 L847.236 1347.66 Z" fill="#000000" fill-rule="evenodd" fill-opacity="1"></path><path clip-path="url(#clip760)" d="M869.172 1325.26 Q866.012 1325.26 864.412 1328.38 Q862.832 1331.47 862.832 1337.71 Q862.832 1343.93 864.412 1347.05 Q866.012 1350.15 869.172 1350.15 Q872.352 1350.15 873.932 1347.05 Q875.532 1343.93 875.532 1337.71 Q875.532 1331.47 873.932 1328.38 Q872.352 1325.26 869.172 1325.26 M869.172 1322.02 Q874.256 1322.02 876.929 1326.05 Q879.623 1330.06 879.623 1337.71 Q879.623 1345.35 876.929 1349.38 Q874.256 1353.39 869.172 1353.39 Q864.088 1353.39 861.394 1349.38 Q858.721 1345.35 858.721 1337.71 Q858.721 1330.06 861.394 1326.05 Q864.088 1322.02 869.172 1322.02 Z" fill="#000000" fill-rule="evenodd" fill-opacity="1"></path><path clip-path="url(#clip760)" d="M777.611 1160.55 L788.529 1160.55 L788.529 1163.87 L777.611 1163.87 L777.611 1160.55 Z" fill="#000000" fill-rule="evenodd" fill-opacity="1"></path><path clip-path="url(#clip760)" d="M806.231 1146.9 L795.901 1163.04 L806.231 1163.04 L806.231 1146.9 M805.158 1143.34 L810.302 1143.34 L810.302 1163.04 L814.616 1163.04 L814.616 1166.45 L810.302 1166.45 L810.302 1173.58 L806.231 1173.58 L806.231 1166.45 L792.58 1166.45 L792.58 1162.5 L805.158 1143.34 Z" fill="#000000" fill-rule="evenodd" fill-opacity="1"></path><path clip-path="url(#clip760)" d="M821.381 1168.43 L825.655 1168.43 L825.655 1173.58 L821.381 1173.58 L821.381 1168.43 Z" fill="#000000" fill-rule="evenodd" fill-opacity="1"></path><path clip-path="url(#clip760)" d="M845.808 1146.9 L835.479 1163.04 L845.808 1163.04 L845.808 1146.9 M844.735 1143.34 L849.88 1143.34 L849.88 1163.04 L854.194 1163.04 L854.194 1166.45 L849.88 1166.45 L849.88 1173.58 L845.808 1173.58 L845.808 1166.45 L832.157 1166.45 L832.157 1162.5 L844.735 1143.34 Z" fill="#000000" fill-rule="evenodd" fill-opacity="1"></path><path clip-path="url(#clip760)" d="M872.2 1146.9 L861.87 1163.04 L872.2 1163.04 L872.2 1146.9 M871.127 1143.34 L876.271 1143.34 L876.271 1163.04 L880.585 1163.04 L880.585 1166.45 L876.271 1166.45 L876.271 1173.58 L872.2 1173.58 L872.2 1166.45 L858.548 1166.45 L858.548 1162.5 L871.127 1143.34 Z" fill="#000000" fill-rule="evenodd" fill-opacity="1"></path><path clip-path="url(#clip760)" d="M888.059 1170.13 L894.743 1170.13 L894.743 1147.06 L887.472 1148.52 L887.472 1144.79 L894.703 1143.34 L898.794 1143.34 L898.794 1170.13 L905.478 1170.13 L905.478 1173.58 L888.059 1173.58 L888.059 1170.13 Z" fill="#000000" fill-rule="evenodd" fill-opacity="1"></path><path clip-path="url(#clip760)" d="M777.611 981.324 L788.529 981.324 L788.529 984.646 L777.611 984.646 L777.611 981.324 Z" fill="#000000" fill-rule="evenodd" fill-opacity="1"></path><path clip-path="url(#clip760)" d="M806.231 967.672 L795.901 983.815 L806.231 983.815 L806.231 967.672 M805.158 964.108 L810.302 964.108 L810.302 983.815 L814.616 983.815 L814.616 987.218 L810.302 987.218 L810.302 994.348 L806.231 994.348 L806.231 987.218 L792.58 987.218 L792.58 983.268 L805.158 964.108 Z" fill="#000000" fill-rule="evenodd" fill-opacity="1"></path><path clip-path="url(#clip760)" d="M821.381 989.203 L825.655 989.203 L825.655 994.348 L821.381 994.348 L821.381 989.203 Z" fill="#000000" fill-rule="evenodd" fill-opacity="1"></path><path clip-path="url(#clip760)" d="M845.808 967.672 L835.479 983.815 L845.808 983.815 L845.808 967.672 M844.735 964.108 L849.88 964.108 L849.88 983.815 L854.194 983.815 L854.194 987.218 L849.88 987.218 L849.88 994.348 L845.808 994.348 L845.808 987.218 L832.157 987.218 L832.157 983.268 L844.735 964.108 Z" fill="#000000" fill-rule="evenodd" fill-opacity="1"></path><path clip-path="url(#clip760)" d="M872.2 967.672 L861.87 983.815 L872.2 983.815 L872.2 967.672 M871.127 964.108 L876.271 964.108 L876.271 983.815 L880.585 983.815 L880.585 987.218 L876.271 987.218 L876.271 994.348 L872.2 994.348 L872.2 987.218 L858.548 987.218 L858.548 983.268 L871.127 964.108 Z" fill="#000000" fill-rule="evenodd" fill-opacity="1"></path><path clip-path="url(#clip760)" d="M888.059 990.904 L894.743 990.904 L894.743 967.834 L887.472 969.293 L887.472 965.566 L894.703 964.108 L898.794 964.108 L898.794 990.904 L905.478 990.904 L905.478 994.348 L888.059 994.348 L888.059 990.904 Z" fill="#000000" fill-rule="evenodd" fill-opacity="1"></path><path clip-path="url(#clip760)" d="M777.611 802.096 L788.529 802.096 L788.529 805.418 L777.611 805.418 L777.611 802.096 Z" fill="#000000" fill-rule="evenodd" fill-opacity="1"></path><path clip-path="url(#clip760)" d="M806.231 788.445 L795.901 804.588 L806.231 804.588 L806.231 788.445 M805.158 784.88 L810.302 784.88 L810.302 804.588 L814.616 804.588 L814.616 807.99 L810.302 807.99 L810.302 815.12 L806.231 815.12 L806.231 807.99 L792.58 807.99 L792.58 804.041 L805.158 784.88 Z" fill="#000000" fill-rule="evenodd" fill-opacity="1"></path><path clip-path="url(#clip760)" d="M821.381 809.975 L825.655 809.975 L825.655 815.12 L821.381 815.12 L821.381 809.975 Z" fill="#000000" fill-rule="evenodd" fill-opacity="1"></path><path clip-path="url(#clip760)" d="M845.808 788.445 L835.479 804.588 L845.808 804.588 L845.808 788.445 M844.735 784.88 L849.88 784.88 L849.88 804.588 L854.194 804.588 L854.194 807.99 L849.88 807.99 L849.88 815.12 L845.808 815.12 L845.808 807.99 L832.157 807.99 L832.157 804.041 L844.735 784.88 Z" fill="#000000" fill-rule="evenodd" fill-opacity="1"></path><path clip-path="url(#clip760)" d="M872.2 788.445 L861.87 804.588 L872.2 804.588 L872.2 788.445 M871.127 784.88 L876.271 784.88 L876.271 804.588 L880.585 804.588 L880.585 807.99 L876.271 807.99 L876.271 815.12 L872.2 815.12 L872.2 807.99 L858.548 807.99 L858.548 804.041 L871.127 784.88 Z" fill="#000000" fill-rule="evenodd" fill-opacity="1"></path><path clip-path="url(#clip760)" d="M888.059 811.677 L894.743 811.677 L894.743 788.607 L887.472 790.065 L887.472 786.338 L894.703 784.88 L898.794 784.88 L898.794 811.677 L905.478 811.677 L905.478 815.12 L888.059 815.12 L888.059 811.677 Z" fill="#000000" fill-rule="evenodd" fill-opacity="1"></path><path clip-path="url(#clip760)" d="M777.611 622.869 L788.529 622.869 L788.529 626.19 L777.611 626.19 L777.611 622.869 Z" fill="#000000" fill-rule="evenodd" fill-opacity="1"></path><path clip-path="url(#clip760)" d="M806.231 609.217 L795.901 625.36 L806.231 625.36 L806.231 609.217 M805.158 605.652 L810.302 605.652 L810.302 625.36 L814.616 625.36 L814.616 628.763 L810.302 628.763 L810.302 635.892 L806.231 635.892 L806.231 628.763 L792.58 628.763 L792.58 624.813 L805.158 605.652 Z" fill="#000000" fill-rule="evenodd" fill-opacity="1"></path><path clip-path="url(#clip760)" d="M821.381 630.748 L825.655 630.748 L825.655 635.892 L821.381 635.892 L821.381 630.748 Z" fill="#000000" fill-rule="evenodd" fill-opacity="1"></path><path clip-path="url(#clip760)" d="M845.808 609.217 L835.479 625.36 L845.808 625.36 L845.808 609.217 M844.735 605.652 L849.88 605.652 L849.88 625.36 L854.194 625.36 L854.194 628.763 L849.88 628.763 L849.88 635.892 L845.808 635.892 L845.808 628.763 L832.157 628.763 L832.157 624.813 L844.735 605.652 Z" fill="#000000" fill-rule="evenodd" fill-opacity="1"></path><path clip-path="url(#clip760)" d="M872.2 609.217 L861.87 625.36 L872.2 625.36 L872.2 609.217 M871.127 605.652 L876.271 605.652 L876.271 625.36 L880.585 625.36 L880.585 628.763 L876.271 628.763 L876.271 635.892 L872.2 635.892 L872.2 628.763 L858.548 628.763 L858.548 624.813 L871.127 605.652 Z" fill="#000000" fill-rule="evenodd" fill-opacity="1"></path><path clip-path="url(#clip760)" d="M888.059 632.449 L894.743 632.449 L894.743 609.379 L887.472 610.838 L887.472 607.111 L894.703 605.652 L898.794 605.652 L898.794 632.449 L905.478 632.449 L905.478 635.892 L888.059 635.892 L888.059 632.449 Z" fill="#000000" fill-rule="evenodd" fill-opacity="1"></path><path clip-path="url(#clip760)" d="M777.611 443.641 L788.529 443.641 L788.529 446.963 L777.611 446.963 L777.611 443.641 Z" fill="#000000" fill-rule="evenodd" fill-opacity="1"></path><path clip-path="url(#clip760)" d="M806.231 429.99 L795.901 446.132 L806.231 446.132 L806.231 429.99 M805.158 426.425 L810.302 426.425 L810.302 446.132 L814.616 446.132 L814.616 449.535 L810.302 449.535 L810.302 456.665 L806.231 456.665 L806.231 449.535 L792.58 449.535 L792.58 445.586 L805.158 426.425 Z" fill="#000000" fill-rule="evenodd" fill-opacity="1"></path><path clip-path="url(#clip760)" d="M821.381 451.52 L825.655 451.52 L825.655 456.665 L821.381 456.665 L821.381 451.52 Z" fill="#000000" fill-rule="evenodd" fill-opacity="1"></path><path clip-path="url(#clip760)" d="M845.808 429.99 L835.479 446.132 L845.808 446.132 L845.808 429.99 M844.735 426.425 L849.88 426.425 L849.88 446.132 L854.194 446.132 L854.194 449.535 L849.88 449.535 L849.88 456.665 L845.808 456.665 L845.808 449.535 L832.157 449.535 L832.157 445.586 L844.735 426.425 Z" fill="#000000" fill-rule="evenodd" fill-opacity="1"></path><path clip-path="url(#clip760)" d="M872.2 429.99 L861.87 446.132 L872.2 446.132 L872.2 429.99 M871.127 426.425 L876.271 426.425 L876.271 446.132 L880.585 446.132 L880.585 449.535 L876.271 449.535 L876.271 456.665 L872.2 456.665 L872.2 449.535 L858.548 449.535 L858.548 445.586 L871.127 426.425 Z" fill="#000000" fill-rule="evenodd" fill-opacity="1"></path><path clip-path="url(#clip760)" d="M888.059 453.222 L894.743 453.222 L894.743 430.152 L887.472 431.61 L887.472 427.883 L894.703 426.425 L898.794 426.425 L898.794 453.222 L905.478 453.222 L905.478 456.665 L888.059 456.665 L888.059 453.222 Z" fill="#000000" fill-rule="evenodd" fill-opacity="1"></path><path clip-path="url(#clip760)" d="M777.611 264.414 L788.529 264.414 L788.529 267.735 L777.611 267.735 L777.611 264.414 Z" fill="#000000" fill-rule="evenodd" fill-opacity="1"></path><path clip-path="url(#clip760)" d="M806.231 250.762 L795.901 266.905 L806.231 266.905 L806.231 250.762 M805.158 247.197 L810.302 247.197 L810.302 266.905 L814.616 266.905 L814.616 270.308 L810.302 270.308 L810.302 277.437 L806.231 277.437 L806.231 270.308 L792.58 270.308 L792.58 266.358 L805.158 247.197 Z" fill="#000000" fill-rule="evenodd" fill-opacity="1"></path><path clip-path="url(#clip760)" d="M821.381 272.293 L825.655 272.293 L825.655 277.437 L821.381 277.437 L821.381 272.293 Z" fill="#000000" fill-rule="evenodd" fill-opacity="1"></path><path clip-path="url(#clip760)" d="M845.808 250.762 L835.479 266.905 L845.808 266.905 L845.808 250.762 M844.735 247.197 L849.88 247.197 L849.88 266.905 L854.194 266.905 L854.194 270.308 L849.88 270.308 L849.88 277.437 L845.808 277.437 L845.808 270.308 L832.157 270.308 L832.157 266.358 L844.735 247.197 Z" fill="#000000" fill-rule="evenodd" fill-opacity="1"></path><path clip-path="url(#clip760)" d="M872.2 250.762 L861.87 266.905 L872.2 266.905 L872.2 250.762 M871.127 247.197 L876.271 247.197 L876.271 266.905 L880.585 266.905 L880.585 270.308 L876.271 270.308 L876.271 277.437 L872.2 277.437 L872.2 270.308 L858.548 270.308 L858.548 266.358 L871.127 247.197 Z" fill="#000000" fill-rule="evenodd" fill-opacity="1"></path><path clip-path="url(#clip760)" d="M888.059 273.994 L894.743 273.994 L894.743 250.924 L887.472 252.382 L887.472 248.656 L894.703 247.197 L898.794 247.197 L898.794 273.994 L905.478 273.994 L905.478 277.437 L888.059 277.437 L888.059 273.994 Z" fill="#000000" fill-rule="evenodd" fill-opacity="1"></path><path clip-path="url(#clip760)" d="M1136.07 1160.55 L1146.98 1160.55 L1146.98 1163.87 L1136.07 1163.87 L1136.07 1160.55 Z" fill="#000000" fill-rule="evenodd" fill-opacity="1"></path><path clip-path="url(#clip760)" d="M1164.69 1146.9 L1154.36 1163.04 L1164.69 1163.04 L1164.69 1146.9 M1163.61 1143.34 L1168.76 1143.34 L1168.76 1163.04 L1173.07 1163.04 L1173.07 1166.45 L1168.76 1166.45 L1168.76 1173.58 L1164.69 1173.58 L1164.69 1166.45 L1151.03 1166.45 L1151.03 1162.5 L1163.61 1143.34 Z" fill="#000000" fill-rule="evenodd" fill-opacity="1"></path><path clip-path="url(#clip760)" d="M1179.84 1168.43 L1184.11 1168.43 L1184.11 1173.58 L1179.84 1173.58 L1179.84 1168.43 Z" fill="#000000" fill-rule="evenodd" fill-opacity="1"></path><path clip-path="url(#clip760)" d="M1204.26 1146.9 L1193.93 1163.04 L1204.26 1163.04 L1204.26 1146.9 M1203.19 1143.34 L1208.33 1143.34 L1208.33 1163.04 L1212.65 1163.04 L1212.65 1166.45 L1208.33 1166.45 L1208.33 1173.58 L1204.26 1173.58 L1204.26 1166.45 L1190.61 1166.45 L1190.61 1162.5 L1203.19 1143.34 Z" fill="#000000" fill-rule="evenodd" fill-opacity="1"></path><path clip-path="url(#clip760)" d="M1230.66 1146.9 L1220.33 1163.04 L1230.66 1163.04 L1230.66 1146.9 M1229.58 1143.34 L1234.73 1143.34 L1234.73 1163.04 L1239.04 1163.04 L1239.04 1166.45 L1234.73 1166.45 L1234.73 1173.58 L1230.66 1173.58 L1230.66 1166.45 L1217 1166.45 L1217 1162.5 L1229.58 1143.34 Z" fill="#000000" fill-rule="evenodd" fill-opacity="1"></path><path clip-path="url(#clip760)" d="M1246.51 1170.13 L1253.2 1170.13 L1253.2 1147.06 L1245.93 1148.52 L1245.93 1144.79 L1253.16 1143.34 L1257.25 1143.34 L1257.25 1170.13 L1263.93 1170.13 L1263.93 1173.58 L1246.51 1173.58 L1246.51 1170.13 Z" fill="#000000" fill-rule="evenodd" fill-opacity="1"></path><path clip-path="url(#clip760)" d="M1136.07 981.324 L1146.98 981.324 L1146.98 984.646 L1136.07 984.646 L1136.07 981.324 Z" fill="#000000" fill-rule="evenodd" fill-opacity="1"></path><path clip-path="url(#clip760)" d="M1164.69 967.672 L1154.36 983.815 L1164.69 983.815 L1164.69 967.672 M1163.61 964.108 L1168.76 964.108 L1168.76 983.815 L1173.07 983.815 L1173.07 987.218 L1168.76 987.218 L1168.76 994.348 L1164.69 994.348 L1164.69 987.218 L1151.03 987.218 L1151.03 983.268 L1163.61 964.108 Z" fill="#000000" fill-rule="evenodd" fill-opacity="1"></path><path clip-path="url(#clip760)" d="M1179.84 989.203 L1184.11 989.203 L1184.11 994.348 L1179.84 994.348 L1179.84 989.203 Z" fill="#000000" fill-rule="evenodd" fill-opacity="1"></path><path clip-path="url(#clip760)" d="M1204.26 967.672 L1193.93 983.815 L1204.26 983.815 L1204.26 967.672 M1203.19 964.108 L1208.33 964.108 L1208.33 983.815 L1212.65 983.815 L1212.65 987.218 L1208.33 987.218 L1208.33 994.348 L1204.26 994.348 L1204.26 987.218 L1190.61 987.218 L1190.61 983.268 L1203.19 964.108 Z" fill="#000000" fill-rule="evenodd" fill-opacity="1"></path><path clip-path="url(#clip760)" d="M1230.66 967.672 L1220.33 983.815 L1230.66 983.815 L1230.66 967.672 M1229.58 964.108 L1234.73 964.108 L1234.73 983.815 L1239.04 983.815 L1239.04 987.218 L1234.73 987.218 L1234.73 994.348 L1230.66 994.348 L1230.66 987.218 L1217 987.218 L1217 983.268 L1229.58 964.108 Z" fill="#000000" fill-rule="evenodd" fill-opacity="1"></path><path clip-path="url(#clip760)" d="M1246.51 990.904 L1253.2 990.904 L1253.2 967.834 L1245.93 969.293 L1245.93 965.566 L1253.16 964.108 L1257.25 964.108 L1257.25 990.904 L1263.93 990.904 L1263.93 994.348 L1246.51 994.348 L1246.51 990.904 Z" fill="#000000" fill-rule="evenodd" fill-opacity="1"></path><path clip-path="url(#clip760)" d="M1136.07 802.096 L1146.98 802.096 L1146.98 805.418 L1136.07 805.418 L1136.07 802.096 Z" fill="#000000" fill-rule="evenodd" fill-opacity="1"></path><path clip-path="url(#clip760)" d="M1164.69 788.445 L1154.36 804.588 L1164.69 804.588 L1164.69 788.445 M1163.61 784.88 L1168.76 784.88 L1168.76 804.588 L1173.07 804.588 L1173.07 807.99 L1168.76 807.99 L1168.76 815.12 L1164.69 815.12 L1164.69 807.99 L1151.03 807.99 L1151.03 804.041 L1163.61 784.88 Z" fill="#000000" fill-rule="evenodd" fill-opacity="1"></path><path clip-path="url(#clip760)" d="M1179.84 809.975 L1184.11 809.975 L1184.11 815.12 L1179.84 815.12 L1179.84 809.975 Z" fill="#000000" fill-rule="evenodd" fill-opacity="1"></path><path clip-path="url(#clip760)" d="M1204.26 788.445 L1193.93 804.588 L1204.26 804.588 L1204.26 788.445 M1203.19 784.88 L1208.33 784.88 L1208.33 804.588 L1212.65 804.588 L1212.65 807.99 L1208.33 807.99 L1208.33 815.12 L1204.26 815.12 L1204.26 807.99 L1190.61 807.99 L1190.61 804.041 L1203.19 784.88 Z" fill="#000000" fill-rule="evenodd" fill-opacity="1"></path><path clip-path="url(#clip760)" d="M1230.66 788.445 L1220.33 804.588 L1230.66 804.588 L1230.66 788.445 M1229.58 784.88 L1234.73 784.88 L1234.73 804.588 L1239.04 804.588 L1239.04 807.99 L1234.73 807.99 L1234.73 815.12 L1230.66 815.12 L1230.66 807.99 L1217 807.99 L1217 804.041 L1229.58 784.88 Z" fill="#000000" fill-rule="evenodd" fill-opacity="1"></path><path clip-path="url(#clip760)" d="M1246.51 811.677 L1253.2 811.677 L1253.2 788.607 L1245.93 790.065 L1245.93 786.338 L1253.16 784.88 L1257.25 784.88 L1257.25 811.677 L1263.93 811.677 L1263.93 815.12 L1246.51 815.12 L1246.51 811.677 Z" fill="#000000" fill-rule="evenodd" fill-opacity="1"></path><path clip-path="url(#clip760)" d="M1136.07 622.869 L1146.98 622.869 L1146.98 626.19 L1136.07 626.19 L1136.07 622.869 Z" fill="#000000" fill-rule="evenodd" fill-opacity="1"></path><path clip-path="url(#clip760)" d="M1164.69 609.217 L1154.36 625.36 L1164.69 625.36 L1164.69 609.217 M1163.61 605.652 L1168.76 605.652 L1168.76 625.36 L1173.07 625.36 L1173.07 628.763 L1168.76 628.763 L1168.76 635.892 L1164.69 635.892 L1164.69 628.763 L1151.03 628.763 L1151.03 624.813 L1163.61 605.652 Z" fill="#000000" fill-rule="evenodd" fill-opacity="1"></path><path clip-path="url(#clip760)" d="M1179.84 630.748 L1184.11 630.748 L1184.11 635.892 L1179.84 635.892 L1179.84 630.748 Z" fill="#000000" fill-rule="evenodd" fill-opacity="1"></path><path clip-path="url(#clip760)" d="M1204.26 609.217 L1193.93 625.36 L1204.26 625.36 L1204.26 609.217 M1203.19 605.652 L1208.33 605.652 L1208.33 625.36 L1212.65 625.36 L1212.65 628.763 L1208.33 628.763 L1208.33 635.892 L1204.26 635.892 L1204.26 628.763 L1190.61 628.763 L1190.61 624.813 L1203.19 605.652 Z" fill="#000000" fill-rule="evenodd" fill-opacity="1"></path><path clip-path="url(#clip760)" d="M1230.66 609.217 L1220.33 625.36 L1230.66 625.36 L1230.66 609.217 M1229.58 605.652 L1234.73 605.652 L1234.73 625.36 L1239.04 625.36 L1239.04 628.763 L1234.73 628.763 L1234.73 635.892 L1230.66 635.892 L1230.66 628.763 L1217 628.763 L1217 624.813 L1229.58 605.652 Z" fill="#000000" fill-rule="evenodd" fill-opacity="1"></path><path clip-path="url(#clip760)" d="M1246.51 632.449 L1253.2 632.449 L1253.2 609.379 L1245.93 610.838 L1245.93 607.111 L1253.16 605.652 L1257.25 605.652 L1257.25 632.449 L1263.93 632.449 L1263.93 635.892 L1246.51 635.892 L1246.51 632.449 Z" fill="#000000" fill-rule="evenodd" fill-opacity="1"></path><path clip-path="url(#clip760)" d="M1494.52 802.096 L1505.44 802.096 L1505.44 805.418 L1494.52 805.418 L1494.52 802.096 Z" fill="#000000" fill-rule="evenodd" fill-opacity="1"></path><path clip-path="url(#clip760)" d="M1523.14 788.445 L1512.81 804.588 L1523.14 804.588 L1523.14 788.445 M1522.07 784.88 L1527.21 784.88 L1527.21 804.588 L1531.53 804.588 L1531.53 807.99 L1527.21 807.99 L1527.21 815.12 L1523.14 815.12 L1523.14 807.99 L1509.49 807.99 L1509.49 804.041 L1522.07 784.88 Z" fill="#000000" fill-rule="evenodd" fill-opacity="1"></path><path clip-path="url(#clip760)" d="M1538.29 809.975 L1542.57 809.975 L1542.57 815.12 L1538.29 815.12 L1538.29 809.975 Z" fill="#000000" fill-rule="evenodd" fill-opacity="1"></path><path clip-path="url(#clip760)" d="M1562.72 788.445 L1552.39 804.588 L1562.72 804.588 L1562.72 788.445 M1561.65 784.88 L1566.79 784.88 L1566.79 804.588 L1571.1 804.588 L1571.1 807.99 L1566.79 807.99 L1566.79 815.12 L1562.72 815.12 L1562.72 807.99 L1549.07 807.99 L1549.07 804.041 L1561.65 784.88 Z" fill="#000000" fill-rule="evenodd" fill-opacity="1"></path><path clip-path="url(#clip760)" d="M1589.11 788.445 L1578.78 804.588 L1589.11 804.588 L1589.11 788.445 M1588.04 784.88 L1593.18 784.88 L1593.18 804.588 L1597.5 804.588 L1597.5 807.99 L1593.18 807.99 L1593.18 815.12 L1589.11 815.12 L1589.11 807.99 L1575.46 807.99 L1575.46 804.041 L1588.04 784.88 Z" fill="#000000" fill-rule="evenodd" fill-opacity="1"></path><path clip-path="url(#clip760)" d="M1604.97 811.677 L1611.65 811.677 L1611.65 788.607 L1604.38 790.065 L1604.38 786.338 L1611.61 784.88 L1615.7 784.88 L1615.7 811.677 L1622.39 811.677 L1622.39 815.12 L1604.97 815.12 L1604.97 811.677 Z" fill="#000000" fill-rule="evenodd" fill-opacity="1"></path><path clip-path="url(#clip760)" d="M1494.52 622.869 L1505.44 622.869 L1505.44 626.19 L1494.52 626.19 L1494.52 622.869 Z" fill="#000000" fill-rule="evenodd" fill-opacity="1"></path><path clip-path="url(#clip760)" d="M1523.14 609.217 L1512.81 625.36 L1523.14 625.36 L1523.14 609.217 M1522.07 605.652 L1527.21 605.652 L1527.21 625.36 L1531.53 625.36 L1531.53 628.763 L1527.21 628.763 L1527.21 635.892 L1523.14 635.892 L1523.14 628.763 L1509.49 628.763 L1509.49 624.813 L1522.07 605.652 Z" fill="#000000" fill-rule="evenodd" fill-opacity="1"></path><path clip-path="url(#clip760)" d="M1538.29 630.748 L1542.57 630.748 L1542.57 635.892 L1538.29 635.892 L1538.29 630.748 Z" fill="#000000" fill-rule="evenodd" fill-opacity="1"></path><path clip-path="url(#clip760)" d="M1562.72 609.217 L1552.39 625.36 L1562.72 625.36 L1562.72 609.217 M1561.65 605.652 L1566.79 605.652 L1566.79 625.36 L1571.1 625.36 L1571.1 628.763 L1566.79 628.763 L1566.79 635.892 L1562.72 635.892 L1562.72 628.763 L1549.07 628.763 L1549.07 624.813 L1561.65 605.652 Z" fill="#000000" fill-rule="evenodd" fill-opacity="1"></path><path clip-path="url(#clip760)" d="M1589.11 609.217 L1578.78 625.36 L1589.11 625.36 L1589.11 609.217 M1588.04 605.652 L1593.18 605.652 L1593.18 625.36 L1597.5 625.36 L1597.5 628.763 L1593.18 628.763 L1593.18 635.892 L1589.11 635.892 L1589.11 628.763 L1575.46 628.763 L1575.46 624.813 L1588.04 605.652 Z" fill="#000000" fill-rule="evenodd" fill-opacity="1"></path><path clip-path="url(#clip760)" d="M1604.97 632.449 L1611.65 632.449 L1611.65 609.379 L1604.38 610.838 L1604.38 607.111 L1611.61 605.652 L1615.7 605.652 L1615.7 632.449 L1622.39 632.449 L1622.39 635.892 L1604.97 635.892 L1604.97 632.449 Z" fill="#000000" fill-rule="evenodd" fill-opacity="1"></path></svg>
